<?xml version="1.0" encoding="utf-8"?>
<svg xmlns="http://www.w3.org/2000/svg" xmlns:xlink="http://www.w3.org/1999/xlink" width="600" height="400" viewBox="0 0 2400 1600">
<defs>
  <clipPath id="clip990">
    <rect x="0" y="0" width="2400" height="1600"/>
  </clipPath>
</defs>
<path clip-path="url(#clip990)" d="M0 1600 L2400 1600 L2400 0 L0 0  Z" fill="#ffffff" fill-rule="evenodd" fill-opacity="1"/>
<defs>
  <clipPath id="clip991">
    <rect x="205" y="123" width="2149" height="1301"/>
  </clipPath>
</defs>
<path clip-path="url(#clip990)" d="M205.121 1423.18 L2352.76 1423.18 L2352.76 123.472 L205.121 123.472  Z" fill="#ffffff" fill-rule="evenodd" fill-opacity="1"/>
<polyline clip-path="url(#clip991)" style="stroke:#000000; stroke-linecap:round; stroke-linejoin:round; stroke-width:2; stroke-opacity:0.1; fill:none" points="265.324,1423.18 265.324,123.472 "/>
<polyline clip-path="url(#clip991)" style="stroke:#000000; stroke-linecap:round; stroke-linejoin:round; stroke-width:2; stroke-opacity:0.1; fill:none" points="747.997,1423.18 747.997,123.472 "/>
<polyline clip-path="url(#clip991)" style="stroke:#000000; stroke-linecap:round; stroke-linejoin:round; stroke-width:2; stroke-opacity:0.1; fill:none" points="1230.67,1423.18 1230.67,123.472 "/>
<polyline clip-path="url(#clip991)" style="stroke:#000000; stroke-linecap:round; stroke-linejoin:round; stroke-width:2; stroke-opacity:0.1; fill:none" points="1713.34,1423.18 1713.34,123.472 "/>
<polyline clip-path="url(#clip991)" style="stroke:#000000; stroke-linecap:round; stroke-linejoin:round; stroke-width:2; stroke-opacity:0.1; fill:none" points="2196.02,1423.18 2196.02,123.472 "/>
<polyline clip-path="url(#clip991)" style="stroke:#000000; stroke-linecap:round; stroke-linejoin:round; stroke-width:2; stroke-opacity:0.1; fill:none" points="205.121,1423.18 2352.76,1423.18 "/>
<polyline clip-path="url(#clip991)" style="stroke:#000000; stroke-linecap:round; stroke-linejoin:round; stroke-width:2; stroke-opacity:0.1; fill:none" points="205.121,1160.58 2352.76,1160.58 "/>
<polyline clip-path="url(#clip991)" style="stroke:#000000; stroke-linecap:round; stroke-linejoin:round; stroke-width:2; stroke-opacity:0.1; fill:none" points="205.121,897.983 2352.76,897.983 "/>
<polyline clip-path="url(#clip991)" style="stroke:#000000; stroke-linecap:round; stroke-linejoin:round; stroke-width:2; stroke-opacity:0.1; fill:none" points="205.121,635.385 2352.76,635.385 "/>
<polyline clip-path="url(#clip991)" style="stroke:#000000; stroke-linecap:round; stroke-linejoin:round; stroke-width:2; stroke-opacity:0.1; fill:none" points="205.121,372.787 2352.76,372.787 "/>
<polyline clip-path="url(#clip990)" style="stroke:#000000; stroke-linecap:round; stroke-linejoin:round; stroke-width:4; stroke-opacity:1; fill:none" points="205.121,1423.18 2352.76,1423.18 "/>
<polyline clip-path="url(#clip990)" style="stroke:#000000; stroke-linecap:round; stroke-linejoin:round; stroke-width:4; stroke-opacity:1; fill:none" points="265.324,1423.18 265.324,1404.28 "/>
<polyline clip-path="url(#clip990)" style="stroke:#000000; stroke-linecap:round; stroke-linejoin:round; stroke-width:4; stroke-opacity:1; fill:none" points="747.997,1423.18 747.997,1404.28 "/>
<polyline clip-path="url(#clip990)" style="stroke:#000000; stroke-linecap:round; stroke-linejoin:round; stroke-width:4; stroke-opacity:1; fill:none" points="1230.67,1423.18 1230.67,1404.28 "/>
<polyline clip-path="url(#clip990)" style="stroke:#000000; stroke-linecap:round; stroke-linejoin:round; stroke-width:4; stroke-opacity:1; fill:none" points="1713.34,1423.18 1713.34,1404.28 "/>
<polyline clip-path="url(#clip990)" style="stroke:#000000; stroke-linecap:round; stroke-linejoin:round; stroke-width:4; stroke-opacity:1; fill:none" points="2196.02,1423.18 2196.02,1404.28 "/>
<path clip-path="url(#clip990)" d="M265.324 1454.1 Q261.713 1454.1 259.884 1457.66 Q258.079 1461.2 258.079 1468.33 Q258.079 1475.44 259.884 1479.01 Q261.713 1482.55 265.324 1482.55 Q268.958 1482.55 270.764 1479.01 Q272.592 1475.44 272.592 1468.33 Q272.592 1461.2 270.764 1457.66 Q268.958 1454.1 265.324 1454.1 M265.324 1450.39 Q271.134 1450.39 274.19 1455 Q277.268 1459.58 277.268 1468.33 Q277.268 1477.06 274.19 1481.67 Q271.134 1486.25 265.324 1486.25 Q259.514 1486.25 256.435 1481.67 Q253.38 1477.06 253.38 1468.33 Q253.38 1459.58 256.435 1455 Q259.514 1450.39 265.324 1450.39 Z" fill="#000000" fill-rule="nonzero" fill-opacity="1" /><path clip-path="url(#clip990)" d="M738.275 1451.02 L756.632 1451.02 L756.632 1454.96 L742.558 1454.96 L742.558 1463.43 Q743.576 1463.08 744.595 1462.92 Q745.613 1462.73 746.632 1462.73 Q752.419 1462.73 755.798 1465.9 Q759.178 1469.08 759.178 1474.49 Q759.178 1480.07 755.706 1483.17 Q752.234 1486.25 745.914 1486.25 Q743.738 1486.25 741.47 1485.88 Q739.224 1485.51 736.817 1484.77 L736.817 1480.07 Q738.9 1481.2 741.123 1481.76 Q743.345 1482.32 745.822 1482.32 Q749.826 1482.32 752.164 1480.21 Q754.502 1478.1 754.502 1474.49 Q754.502 1470.88 752.164 1468.77 Q749.826 1466.67 745.822 1466.67 Q743.947 1466.67 742.072 1467.08 Q740.22 1467.5 738.275 1468.38 L738.275 1451.02 Z" fill="#000000" fill-rule="nonzero" fill-opacity="1" /><path clip-path="url(#clip990)" d="M1205.36 1481.64 L1213 1481.64 L1213 1455.28 L1204.69 1456.95 L1204.69 1452.69 L1212.95 1451.02 L1217.63 1451.02 L1217.63 1481.64 L1225.27 1481.64 L1225.27 1485.58 L1205.36 1485.58 L1205.36 1481.64 Z" fill="#000000" fill-rule="nonzero" fill-opacity="1" /><path clip-path="url(#clip990)" d="M1244.71 1454.1 Q1241.1 1454.1 1239.27 1457.66 Q1237.47 1461.2 1237.47 1468.33 Q1237.47 1475.44 1239.27 1479.01 Q1241.1 1482.55 1244.71 1482.55 Q1248.34 1482.55 1250.15 1479.01 Q1251.98 1475.44 1251.98 1468.33 Q1251.98 1461.2 1250.15 1457.66 Q1248.34 1454.1 1244.71 1454.1 M1244.71 1450.39 Q1250.52 1450.39 1253.58 1455 Q1256.65 1459.58 1256.65 1468.33 Q1256.65 1477.06 1253.58 1481.67 Q1250.52 1486.25 1244.71 1486.25 Q1238.9 1486.25 1235.82 1481.67 Q1232.77 1477.06 1232.77 1468.33 Q1232.77 1459.58 1235.82 1455 Q1238.9 1450.39 1244.71 1450.39 Z" fill="#000000" fill-rule="nonzero" fill-opacity="1" /><path clip-path="url(#clip990)" d="M1688.53 1481.64 L1696.17 1481.64 L1696.17 1455.28 L1687.86 1456.95 L1687.86 1452.69 L1696.12 1451.02 L1700.8 1451.02 L1700.8 1481.64 L1708.44 1481.64 L1708.44 1485.58 L1688.53 1485.58 L1688.53 1481.64 Z" fill="#000000" fill-rule="nonzero" fill-opacity="1" /><path clip-path="url(#clip990)" d="M1717.93 1451.02 L1736.28 1451.02 L1736.28 1454.96 L1722.21 1454.96 L1722.21 1463.43 Q1723.23 1463.08 1724.25 1462.92 Q1725.27 1462.73 1726.28 1462.73 Q1732.07 1462.73 1735.45 1465.9 Q1738.83 1469.08 1738.83 1474.49 Q1738.83 1480.07 1735.36 1483.17 Q1731.89 1486.25 1725.57 1486.25 Q1723.39 1486.25 1721.12 1485.88 Q1718.88 1485.51 1716.47 1484.77 L1716.47 1480.07 Q1718.55 1481.2 1720.78 1481.76 Q1723 1482.32 1725.47 1482.32 Q1729.48 1482.32 1731.82 1480.21 Q1734.15 1478.1 1734.15 1474.49 Q1734.15 1470.88 1731.82 1468.77 Q1729.48 1466.67 1725.47 1466.67 Q1723.6 1466.67 1721.72 1467.08 Q1719.87 1467.5 1717.93 1468.38 L1717.93 1451.02 Z" fill="#000000" fill-rule="nonzero" fill-opacity="1" /><path clip-path="url(#clip990)" d="M2174.79 1481.64 L2191.11 1481.64 L2191.11 1485.58 L2169.17 1485.58 L2169.17 1481.64 Q2171.83 1478.89 2176.41 1474.26 Q2181.02 1469.61 2182.2 1468.27 Q2184.44 1465.74 2185.32 1464.01 Q2186.23 1462.25 2186.23 1460.56 Q2186.23 1457.8 2184.28 1456.07 Q2182.36 1454.33 2179.26 1454.33 Q2177.06 1454.33 2174.61 1455.09 Q2172.18 1455.86 2169.4 1457.41 L2169.4 1452.69 Q2172.22 1451.55 2174.68 1450.97 Q2177.13 1450.39 2179.17 1450.39 Q2184.54 1450.39 2187.73 1453.08 Q2190.93 1455.77 2190.93 1460.26 Q2190.93 1462.39 2190.12 1464.31 Q2189.33 1466.2 2187.22 1468.8 Q2186.64 1469.47 2183.54 1472.69 Q2180.44 1475.88 2174.79 1481.64 Z" fill="#000000" fill-rule="nonzero" fill-opacity="1" /><path clip-path="url(#clip990)" d="M2210.93 1454.1 Q2207.31 1454.1 2205.49 1457.66 Q2203.68 1461.2 2203.68 1468.33 Q2203.68 1475.44 2205.49 1479.01 Q2207.31 1482.55 2210.93 1482.55 Q2214.56 1482.55 2216.37 1479.01 Q2218.19 1475.44 2218.19 1468.33 Q2218.19 1461.2 2216.37 1457.66 Q2214.56 1454.1 2210.93 1454.1 M2210.93 1450.39 Q2216.74 1450.39 2219.79 1455 Q2222.87 1459.58 2222.87 1468.33 Q2222.87 1477.06 2219.79 1481.67 Q2216.74 1486.25 2210.93 1486.25 Q2205.12 1486.25 2202.04 1481.67 Q2198.98 1477.06 2198.98 1468.33 Q2198.98 1459.58 2202.04 1455 Q2205.12 1450.39 2210.93 1450.39 Z" fill="#000000" fill-rule="nonzero" fill-opacity="1" /><path clip-path="url(#clip990)" d="M1210.71 1520.52 L1217.14 1520.52 L1217.14 1568.04 L1210.71 1568.04 L1210.71 1520.52 Z" fill="#000000" fill-rule="nonzero" fill-opacity="1" /><path clip-path="url(#clip990)" d="M1235.48 1522.27 L1235.48 1532.4 L1247.54 1532.4 L1247.54 1536.95 L1235.48 1536.95 L1235.48 1556.3 Q1235.48 1560.66 1236.65 1561.9 Q1237.86 1563.14 1241.52 1563.14 L1247.54 1563.14 L1247.54 1568.04 L1241.52 1568.04 Q1234.74 1568.04 1232.17 1565.53 Q1229.59 1562.98 1229.59 1556.3 L1229.59 1536.95 L1225.29 1536.95 L1225.29 1532.4 L1229.59 1532.4 L1229.59 1522.27 L1235.48 1522.27 Z" fill="#000000" fill-rule="nonzero" fill-opacity="1" /><path clip-path="url(#clip990)" d="M1285.73 1548.76 L1285.73 1551.62 L1258.81 1551.62 Q1259.19 1557.67 1262.44 1560.85 Q1265.71 1564 1271.54 1564 Q1274.91 1564 1278.06 1563.17 Q1281.25 1562.35 1284.37 1560.69 L1284.37 1566.23 Q1281.21 1567.57 1277.9 1568.27 Q1274.59 1568.97 1271.19 1568.97 Q1262.66 1568.97 1257.66 1564 Q1252.7 1559.04 1252.7 1550.57 Q1252.7 1541.82 1257.41 1536.69 Q1262.15 1531.54 1270.17 1531.54 Q1277.36 1531.54 1281.53 1536.18 Q1285.73 1540.8 1285.73 1548.76 M1279.88 1547.04 Q1279.81 1542.23 1277.17 1539.37 Q1274.56 1536.5 1270.23 1536.5 Q1265.33 1536.5 1262.37 1539.27 Q1259.44 1542.04 1259 1547.07 L1279.88 1547.04 Z" fill="#000000" fill-rule="nonzero" fill-opacity="1" /><path clip-path="url(#clip990)" d="M1323.1 1539.24 Q1325.3 1535.29 1328.35 1533.41 Q1331.41 1531.54 1335.55 1531.54 Q1341.12 1531.54 1344.14 1535.45 Q1347.16 1539.33 1347.16 1546.53 L1347.16 1568.04 L1341.27 1568.04 L1341.27 1546.72 Q1341.27 1541.59 1339.46 1539.11 Q1337.65 1536.63 1333.92 1536.63 Q1329.37 1536.63 1326.73 1539.65 Q1324.09 1542.68 1324.09 1547.9 L1324.09 1568.04 L1318.2 1568.04 L1318.2 1546.72 Q1318.2 1541.56 1316.38 1539.11 Q1314.57 1536.63 1310.78 1536.63 Q1306.3 1536.63 1303.65 1539.68 Q1301.01 1542.71 1301.01 1547.9 L1301.01 1568.04 L1295.12 1568.04 L1295.12 1532.4 L1301.01 1532.4 L1301.01 1537.93 Q1303.02 1534.66 1305.82 1533.1 Q1308.62 1531.54 1312.47 1531.54 Q1316.35 1531.54 1319.06 1533.51 Q1321.8 1535.48 1323.1 1539.24 Z" fill="#000000" fill-rule="nonzero" fill-opacity="1" /><polyline clip-path="url(#clip990)" style="stroke:#000000; stroke-linecap:round; stroke-linejoin:round; stroke-width:4; stroke-opacity:1; fill:none" points="205.121,1423.18 205.121,123.472 "/>
<polyline clip-path="url(#clip990)" style="stroke:#000000; stroke-linecap:round; stroke-linejoin:round; stroke-width:4; stroke-opacity:1; fill:none" points="205.121,1423.18 224.019,1423.18 "/>
<polyline clip-path="url(#clip990)" style="stroke:#000000; stroke-linecap:round; stroke-linejoin:round; stroke-width:4; stroke-opacity:1; fill:none" points="205.121,1160.58 224.019,1160.58 "/>
<polyline clip-path="url(#clip990)" style="stroke:#000000; stroke-linecap:round; stroke-linejoin:round; stroke-width:4; stroke-opacity:1; fill:none" points="205.121,897.983 224.019,897.983 "/>
<polyline clip-path="url(#clip990)" style="stroke:#000000; stroke-linecap:round; stroke-linejoin:round; stroke-width:4; stroke-opacity:1; fill:none" points="205.121,635.385 224.019,635.385 "/>
<polyline clip-path="url(#clip990)" style="stroke:#000000; stroke-linecap:round; stroke-linejoin:round; stroke-width:4; stroke-opacity:1; fill:none" points="205.121,372.787 224.019,372.787 "/>
<path clip-path="url(#clip990)" d="M157.177 1408.98 Q153.566 1408.98 151.737 1412.54 Q149.931 1416.08 149.931 1423.21 Q149.931 1430.32 151.737 1433.89 Q153.566 1437.43 157.177 1437.43 Q160.811 1437.43 162.616 1433.89 Q164.445 1430.32 164.445 1423.21 Q164.445 1416.08 162.616 1412.54 Q160.811 1408.98 157.177 1408.98 M157.177 1405.27 Q162.987 1405.27 166.042 1409.88 Q169.121 1414.46 169.121 1423.21 Q169.121 1431.94 166.042 1436.55 Q162.987 1441.13 157.177 1441.13 Q151.366 1441.13 148.288 1436.55 Q145.232 1431.94 145.232 1423.21 Q145.232 1414.46 148.288 1409.88 Q151.366 1405.27 157.177 1405.27 Z" fill="#000000" fill-rule="nonzero" fill-opacity="1" /><path clip-path="url(#clip990)" d="M121.043 1173.93 L137.362 1173.93 L137.362 1177.86 L115.418 1177.86 L115.418 1173.93 Q118.08 1171.17 122.663 1166.54 Q127.269 1161.89 128.45 1160.55 Q130.695 1158.02 131.575 1156.29 Q132.478 1154.53 132.478 1152.84 Q132.478 1150.08 130.533 1148.35 Q128.612 1146.61 125.51 1146.61 Q123.311 1146.61 120.857 1147.38 Q118.427 1148.14 115.649 1149.69 L115.649 1144.97 Q118.473 1143.83 120.927 1143.26 Q123.38 1142.68 125.418 1142.68 Q130.788 1142.68 133.982 1145.36 Q137.177 1148.05 137.177 1152.54 Q137.177 1154.67 136.367 1156.59 Q135.579 1158.49 133.473 1161.08 Q132.894 1161.75 129.792 1164.97 Q126.691 1168.16 121.043 1173.93 Z" fill="#000000" fill-rule="nonzero" fill-opacity="1" /><path clip-path="url(#clip990)" d="M157.177 1146.38 Q153.566 1146.38 151.737 1149.95 Q149.931 1153.49 149.931 1160.62 Q149.931 1167.72 151.737 1171.29 Q153.566 1174.83 157.177 1174.83 Q160.811 1174.83 162.616 1171.29 Q164.445 1167.72 164.445 1160.62 Q164.445 1153.49 162.616 1149.95 Q160.811 1146.38 157.177 1146.38 M157.177 1142.68 Q162.987 1142.68 166.042 1147.28 Q169.121 1151.87 169.121 1160.62 Q169.121 1169.34 166.042 1173.95 Q162.987 1178.53 157.177 1178.53 Q151.366 1178.53 148.288 1173.95 Q145.232 1169.34 145.232 1160.62 Q145.232 1151.87 148.288 1147.28 Q151.366 1142.68 157.177 1142.68 Z" fill="#000000" fill-rule="nonzero" fill-opacity="1" /><path clip-path="url(#clip990)" d="M129.862 884.777 L118.056 903.226 L129.862 903.226 L129.862 884.777 M128.635 880.703 L134.515 880.703 L134.515 903.226 L139.445 903.226 L139.445 907.115 L134.515 907.115 L134.515 915.263 L129.862 915.263 L129.862 907.115 L114.26 907.115 L114.26 902.601 L128.635 880.703 Z" fill="#000000" fill-rule="nonzero" fill-opacity="1" /><path clip-path="url(#clip990)" d="M157.177 883.782 Q153.566 883.782 151.737 887.347 Q149.931 890.888 149.931 898.018 Q149.931 905.124 151.737 908.689 Q153.566 912.231 157.177 912.231 Q160.811 912.231 162.616 908.689 Q164.445 905.124 164.445 898.018 Q164.445 890.888 162.616 887.347 Q160.811 883.782 157.177 883.782 M157.177 880.078 Q162.987 880.078 166.042 884.685 Q169.121 889.268 169.121 898.018 Q169.121 906.745 166.042 911.351 Q162.987 915.935 157.177 915.935 Q151.366 915.935 148.288 911.351 Q145.232 906.745 145.232 898.018 Q145.232 889.268 148.288 884.685 Q151.366 880.078 157.177 880.078 Z" fill="#000000" fill-rule="nonzero" fill-opacity="1" /><path clip-path="url(#clip990)" d="M127.593 633.522 Q124.445 633.522 122.593 635.674 Q120.765 637.827 120.765 641.577 Q120.765 645.304 122.593 647.48 Q124.445 649.633 127.593 649.633 Q130.742 649.633 132.57 647.48 Q134.422 645.304 134.422 641.577 Q134.422 637.827 132.57 635.674 Q130.742 633.522 127.593 633.522 M136.876 618.869 L136.876 623.128 Q135.117 622.295 133.311 621.855 Q131.529 621.415 129.769 621.415 Q125.14 621.415 122.686 624.54 Q120.255 627.665 119.908 633.984 Q121.274 631.971 123.334 630.906 Q125.394 629.818 127.871 629.818 Q133.08 629.818 136.089 632.989 Q139.121 636.137 139.121 641.577 Q139.121 646.901 135.973 650.119 Q132.825 653.336 127.593 653.336 Q121.598 653.336 118.427 648.753 Q115.256 644.146 115.256 635.42 Q115.256 627.225 119.144 622.364 Q123.033 617.48 129.584 617.48 Q131.343 617.48 133.126 617.827 Q134.931 618.174 136.876 618.869 Z" fill="#000000" fill-rule="nonzero" fill-opacity="1" /><path clip-path="url(#clip990)" d="M157.177 621.184 Q153.566 621.184 151.737 624.748 Q149.931 628.29 149.931 635.42 Q149.931 642.526 151.737 646.091 Q153.566 649.633 157.177 649.633 Q160.811 649.633 162.616 646.091 Q164.445 642.526 164.445 635.42 Q164.445 628.29 162.616 624.748 Q160.811 621.184 157.177 621.184 M157.177 617.48 Q162.987 617.48 166.042 622.086 Q169.121 626.67 169.121 635.42 Q169.121 644.146 166.042 648.753 Q162.987 653.336 157.177 653.336 Q151.366 653.336 148.288 648.753 Q145.232 644.146 145.232 635.42 Q145.232 626.67 148.288 622.086 Q151.366 617.48 157.177 617.48 Z" fill="#000000" fill-rule="nonzero" fill-opacity="1" /><path clip-path="url(#clip990)" d="M127.015 373.655 Q123.681 373.655 121.76 375.437 Q119.862 377.219 119.862 380.344 Q119.862 383.469 121.76 385.252 Q123.681 387.034 127.015 387.034 Q130.348 387.034 132.269 385.252 Q134.191 383.446 134.191 380.344 Q134.191 377.219 132.269 375.437 Q130.371 373.655 127.015 373.655 M122.339 371.664 Q119.33 370.923 117.64 368.863 Q115.973 366.803 115.973 363.84 Q115.973 359.696 118.913 357.289 Q121.876 354.882 127.015 354.882 Q132.177 354.882 135.117 357.289 Q138.056 359.696 138.056 363.84 Q138.056 366.803 136.367 368.863 Q134.7 370.923 131.714 371.664 Q135.093 372.451 136.968 374.743 Q138.867 377.034 138.867 380.344 Q138.867 385.368 135.788 388.053 Q132.732 390.738 127.015 390.738 Q121.297 390.738 118.218 388.053 Q115.163 385.368 115.163 380.344 Q115.163 377.034 117.061 374.743 Q118.959 372.451 122.339 371.664 M120.626 364.28 Q120.626 366.965 122.293 368.47 Q123.982 369.974 127.015 369.974 Q130.024 369.974 131.714 368.47 Q133.427 366.965 133.427 364.28 Q133.427 361.595 131.714 360.09 Q130.024 358.585 127.015 358.585 Q123.982 358.585 122.293 360.09 Q120.626 361.595 120.626 364.28 Z" fill="#000000" fill-rule="nonzero" fill-opacity="1" /><path clip-path="url(#clip990)" d="M157.177 358.585 Q153.566 358.585 151.737 362.15 Q149.931 365.692 149.931 372.821 Q149.931 379.928 151.737 383.493 Q153.566 387.034 157.177 387.034 Q160.811 387.034 162.616 383.493 Q164.445 379.928 164.445 372.821 Q164.445 365.692 162.616 362.15 Q160.811 358.585 157.177 358.585 M157.177 354.882 Q162.987 354.882 166.042 359.488 Q169.121 364.071 169.121 372.821 Q169.121 381.548 166.042 386.155 Q162.987 390.738 157.177 390.738 Q151.366 390.738 148.288 386.155 Q145.232 381.548 145.232 372.821 Q145.232 364.071 148.288 359.488 Q151.366 354.882 157.177 354.882 Z" fill="#000000" fill-rule="nonzero" fill-opacity="1" /><path clip-path="url(#clip990)" d="M21.7677 841.471 L39.6235 841.471 L39.6235 833.386 Q39.6235 828.899 37.3 826.448 Q34.9765 823.997 30.6797 823.997 Q26.4147 823.997 24.0912 826.448 Q21.7677 828.899 21.7677 833.386 L21.7677 841.471 M16.4842 847.9 L16.4842 833.386 Q16.4842 825.397 20.1126 821.323 Q23.7092 817.218 30.6797 817.218 Q37.7138 817.218 41.3104 821.323 Q44.907 825.397 44.907 833.386 L44.907 841.471 L64.0042 841.471 L64.0042 847.9 L16.4842 847.9 Z" fill="#000000" fill-rule="nonzero" fill-opacity="1" /><path clip-path="url(#clip990)" d="M33.8307 789.336 Q33.2578 790.322 33.0032 791.5 Q32.7167 792.646 32.7167 794.046 Q32.7167 799.012 35.9632 801.685 Q39.1779 804.327 45.2253 804.327 L64.0042 804.327 L64.0042 810.215 L28.3562 810.215 L28.3562 804.327 L33.8944 804.327 Q30.6479 802.481 29.0883 799.521 Q27.4968 796.561 27.4968 792.328 Q27.4968 791.723 27.5923 790.991 Q27.656 790.259 27.8151 789.368 L33.8307 789.336 Z" fill="#000000" fill-rule="nonzero" fill-opacity="1" /><path clip-path="url(#clip990)" d="M28.3562 783.193 L28.3562 777.336 L64.0042 777.336 L64.0042 783.193 L28.3562 783.193 M14.479 783.193 L14.479 777.336 L21.895 777.336 L21.895 783.193 L14.479 783.193 Z" fill="#000000" fill-rule="nonzero" fill-opacity="1" /><path clip-path="url(#clip990)" d="M29.7248 739.429 L35.1993 739.429 Q33.8307 741.911 33.1623 744.426 Q32.4621 746.908 32.4621 749.455 Q32.4621 755.152 36.0905 758.303 Q39.6872 761.454 46.212 761.454 Q52.7369 761.454 56.3653 758.303 Q59.9619 755.152 59.9619 749.455 Q59.9619 746.908 59.2935 744.426 Q58.5933 741.911 57.2247 739.429 L62.6355 739.429 Q63.7814 741.879 64.3543 744.521 Q64.9272 747.131 64.9272 750.091 Q64.9272 758.144 59.8664 762.886 Q54.8057 767.629 46.212 767.629 Q37.491 767.629 32.4939 762.854 Q27.4968 758.048 27.4968 749.709 Q27.4968 747.004 28.0697 744.426 Q28.6108 741.848 29.7248 739.429 Z" fill="#000000" fill-rule="nonzero" fill-opacity="1" /><path clip-path="url(#clip990)" d="M44.7161 698.752 L47.5806 698.752 L47.5806 725.679 Q53.6281 725.297 56.8109 722.05 Q59.9619 718.772 59.9619 712.947 Q59.9619 709.573 59.1344 706.422 Q58.3069 703.24 56.6518 700.12 L62.1899 700.12 Q63.5267 703.271 64.227 706.582 Q64.9272 709.892 64.9272 713.297 Q64.9272 721.827 59.9619 726.824 Q54.9967 731.79 46.5303 731.79 Q37.7774 731.79 32.6531 727.079 Q27.4968 722.337 27.4968 714.316 Q27.4968 707.123 32.1438 702.953 Q36.7589 698.752 44.7161 698.752 M42.9973 704.608 Q38.1912 704.672 35.3266 707.314 Q32.4621 709.924 32.4621 714.252 Q32.4621 719.154 35.2312 722.114 Q38.0002 725.042 43.0292 725.488 L42.9973 704.608 Z" fill="#000000" fill-rule="nonzero" fill-opacity="1" /><path clip-path="url(#clip990)" d="M1052.57 12.096 L1060.76 12.096 L1060.76 72.576 L1052.57 72.576 L1052.57 12.096 Z" fill="#000000" fill-rule="nonzero" fill-opacity="1" /><path clip-path="url(#clip990)" d="M1084.09 14.324 L1084.09 27.2059 L1099.44 27.2059 L1099.44 32.9987 L1084.09 32.9987 L1084.09 57.6282 Q1084.09 63.1779 1085.59 64.7578 Q1087.13 66.3376 1091.79 66.3376 L1099.44 66.3376 L1099.44 72.576 L1091.79 72.576 Q1083.16 72.576 1079.88 69.3758 Q1076.6 66.1351 1076.6 57.6282 L1076.6 32.9987 L1071.13 32.9987 L1071.13 27.2059 L1076.6 27.2059 L1076.6 14.324 L1084.09 14.324 Z" fill="#000000" fill-rule="nonzero" fill-opacity="1" /><path clip-path="url(#clip990)" d="M1148.05 48.0275 L1148.05 51.6733 L1113.78 51.6733 Q1114.27 59.3701 1118.4 63.421 Q1122.57 67.4314 1129.99 67.4314 Q1134.28 67.4314 1138.29 66.3781 Q1142.34 65.3249 1146.31 63.2184 L1146.31 70.267 Q1142.3 71.9684 1138.09 72.8596 Q1133.88 73.7508 1129.54 73.7508 Q1118.68 73.7508 1112.32 67.4314 Q1106.01 61.1119 1106.01 50.3365 Q1106.01 39.1965 1112 32.6746 Q1118.04 26.1121 1128.24 26.1121 Q1137.4 26.1121 1142.71 32.0264 Q1148.05 37.9003 1148.05 48.0275 M1140.6 45.84 Q1140.52 39.7232 1137.16 36.0774 Q1133.84 32.4315 1128.33 32.4315 Q1122.09 32.4315 1118.32 35.9558 Q1114.59 39.4801 1114.03 45.8805 L1140.6 45.84 Z" fill="#000000" fill-rule="nonzero" fill-opacity="1" /><path clip-path="url(#clip990)" d="M1195.61 35.9153 Q1198.41 30.8922 1202.3 28.5022 Q1206.18 26.1121 1211.45 26.1121 Q1218.54 26.1121 1222.39 31.0947 Q1226.24 36.0368 1226.24 45.1919 L1226.24 72.576 L1218.74 72.576 L1218.74 45.4349 Q1218.74 38.913 1216.43 35.7533 Q1214.12 32.5936 1209.38 32.5936 Q1203.59 32.5936 1200.23 36.4419 Q1196.87 40.2903 1196.87 46.9338 L1196.87 72.576 L1189.37 72.576 L1189.37 45.4349 Q1189.37 38.8725 1187.06 35.7533 Q1184.75 32.5936 1179.93 32.5936 Q1174.22 32.5936 1170.86 36.4824 Q1167.5 40.3308 1167.5 46.9338 L1167.5 72.576 L1160 72.576 L1160 27.2059 L1167.5 27.2059 L1167.5 34.2544 Q1170.05 30.082 1173.61 28.0971 Q1177.18 26.1121 1182.08 26.1121 Q1187.02 26.1121 1190.47 28.6237 Q1193.95 31.1352 1195.61 35.9153 Z" fill="#000000" fill-rule="nonzero" fill-opacity="1" /><path clip-path="url(#clip990)" d="M1274.68 65.7705 L1274.68 89.8329 L1267.19 89.8329 L1267.19 27.2059 L1274.68 27.2059 L1274.68 34.0924 Q1277.03 30.0415 1280.6 28.0971 Q1284.2 26.1121 1289.19 26.1121 Q1297.45 26.1121 1302.6 32.6746 Q1307.78 39.2371 1307.78 49.9314 Q1307.78 60.6258 1302.6 67.1883 Q1297.45 73.7508 1289.19 73.7508 Q1284.2 73.7508 1280.6 71.8063 Q1277.03 69.8214 1274.68 65.7705 M1300.04 49.9314 Q1300.04 41.7081 1296.64 37.0496 Q1293.28 32.3505 1287.36 32.3505 Q1281.45 32.3505 1278.05 37.0496 Q1274.68 41.7081 1274.68 49.9314 Q1274.68 58.1548 1278.05 62.8538 Q1281.45 67.5124 1287.36 67.5124 Q1293.28 67.5124 1296.64 62.8538 Q1300.04 58.1548 1300.04 49.9314 Z" fill="#000000" fill-rule="nonzero" fill-opacity="1" /><path clip-path="url(#clip990)" d="M1346.43 34.1734 Q1345.17 33.4443 1343.67 33.1202 Q1342.21 32.7556 1340.43 32.7556 Q1334.11 32.7556 1330.71 36.8875 Q1327.35 40.9789 1327.35 48.6757 L1327.35 72.576 L1319.85 72.576 L1319.85 27.2059 L1327.35 27.2059 L1327.35 34.2544 Q1329.7 30.1225 1333.46 28.1376 Q1337.23 26.1121 1342.62 26.1121 Q1343.39 26.1121 1344.32 26.2337 Q1345.25 26.3147 1346.39 26.5172 L1346.43 34.1734 Z" fill="#000000" fill-rule="nonzero" fill-opacity="1" /><path clip-path="url(#clip990)" d="M1354.24 27.2059 L1361.7 27.2059 L1361.7 72.576 L1354.24 72.576 L1354.24 27.2059 M1354.24 9.54393 L1361.7 9.54393 L1361.7 18.9825 L1354.24 18.9825 L1354.24 9.54393 Z" fill="#000000" fill-rule="nonzero" fill-opacity="1" /><path clip-path="url(#clip990)" d="M1409.94 28.9478 L1409.94 35.9153 Q1406.78 34.1734 1403.58 33.3227 Q1400.43 32.4315 1397.18 32.4315 Q1389.93 32.4315 1385.92 37.0496 Q1381.91 41.6271 1381.91 49.9314 Q1381.91 58.2358 1385.92 62.8538 Q1389.93 67.4314 1397.18 67.4314 Q1400.43 67.4314 1403.58 66.5807 Q1406.78 65.6895 1409.94 63.9476 L1409.94 70.8341 Q1406.83 72.2924 1403.46 73.0216 Q1400.14 73.7508 1396.37 73.7508 Q1386.13 73.7508 1380.09 67.3098 Q1374.05 60.8689 1374.05 49.9314 Q1374.05 38.832 1380.13 32.472 Q1386.25 26.1121 1396.86 26.1121 Q1400.3 26.1121 1403.58 26.8413 Q1406.87 27.5299 1409.94 28.9478 Z" fill="#000000" fill-rule="nonzero" fill-opacity="1" /><path clip-path="url(#clip990)" d="M1461.72 48.0275 L1461.72 51.6733 L1427.44 51.6733 Q1427.93 59.3701 1432.06 63.421 Q1436.24 67.4314 1443.65 67.4314 Q1447.94 67.4314 1451.95 66.3781 Q1456 65.3249 1459.97 63.2184 L1459.97 70.267 Q1455.96 71.9684 1451.75 72.8596 Q1447.54 73.7508 1443.2 73.7508 Q1432.35 73.7508 1425.99 67.4314 Q1419.67 61.1119 1419.67 50.3365 Q1419.67 39.1965 1425.66 32.6746 Q1431.7 26.1121 1441.91 26.1121 Q1451.06 26.1121 1456.37 32.0264 Q1461.72 37.9003 1461.72 48.0275 M1454.26 45.84 Q1454.18 39.7232 1450.82 36.0774 Q1447.5 32.4315 1441.99 32.4315 Q1435.75 32.4315 1431.98 35.9558 Q1428.25 39.4801 1427.69 45.8805 L1454.26 45.84 Z" fill="#000000" fill-rule="nonzero" fill-opacity="1" /><path clip-path="url(#clip990)" d="M1502.87 28.5427 L1502.87 35.5912 Q1499.71 33.9709 1496.31 33.1607 Q1492.91 32.3505 1489.26 32.3505 Q1483.71 32.3505 1480.92 34.0519 Q1478.16 35.7533 1478.16 39.156 Q1478.16 41.7486 1480.15 43.2475 Q1482.13 44.7058 1488.13 46.0426 L1490.68 46.6097 Q1498.62 48.3111 1501.94 51.4303 Q1505.3 54.509 1505.3 60.0587 Q1505.3 66.3781 1500.28 70.0644 Q1495.3 73.7508 1486.55 73.7508 Q1482.9 73.7508 1478.93 73.0216 Q1475 72.3329 1470.63 70.9151 L1470.63 63.2184 Q1474.76 65.3654 1478.77 66.4591 Q1482.78 67.5124 1486.71 67.5124 Q1491.98 67.5124 1494.81 65.73 Q1497.65 63.9071 1497.65 60.6258 Q1497.65 57.5877 1495.58 55.9673 Q1493.56 54.3469 1486.63 52.8481 L1484.04 52.2405 Q1477.11 50.7821 1474.03 47.7845 Q1470.95 44.7463 1470.95 39.4801 Q1470.95 33.0797 1475.49 29.5959 Q1480.03 26.1121 1488.37 26.1121 Q1492.5 26.1121 1496.15 26.7198 Q1499.79 27.3274 1502.87 28.5427 Z" fill="#000000" fill-rule="nonzero" fill-opacity="1" /><path clip-path="url(#clip991)" d="M323.245 909.903 L323.245 1423.18 L400.472 1423.18 L400.472 909.903 L323.245 909.903 L323.245 909.903  Z" fill="#4682b4" fill-rule="evenodd" fill-opacity="1"/>
<polyline clip-path="url(#clip991)" style="stroke:#000000; stroke-linecap:round; stroke-linejoin:round; stroke-width:4; stroke-opacity:1; fill:none" points="323.245,909.903 323.245,1423.18 400.472,1423.18 400.472,909.903 323.245,909.903 "/>
<path clip-path="url(#clip991)" d="M419.779 1279.89 L419.779 1423.18 L497.007 1423.18 L497.007 1279.89 L419.779 1279.89 L419.779 1279.89  Z" fill="#4682b4" fill-rule="evenodd" fill-opacity="1"/>
<polyline clip-path="url(#clip991)" style="stroke:#000000; stroke-linecap:round; stroke-linejoin:round; stroke-width:4; stroke-opacity:1; fill:none" points="419.779,1279.89 419.779,1423.18 497.007,1423.18 497.007,1279.89 419.779,1279.89 "/>
<path clip-path="url(#clip991)" d="M516.314 175.262 L516.314 1423.18 L593.542 1423.18 L593.542 175.262 L516.314 175.262 L516.314 175.262  Z" fill="#4682b4" fill-rule="evenodd" fill-opacity="1"/>
<polyline clip-path="url(#clip991)" style="stroke:#000000; stroke-linecap:round; stroke-linejoin:round; stroke-width:4; stroke-opacity:1; fill:none" points="516.314,175.262 516.314,1423.18 593.542,1423.18 593.542,175.262 516.314,175.262 "/>
<path clip-path="url(#clip991)" d="M612.849 123.472 L612.849 1423.18 L690.077 1423.18 L690.077 123.472 L612.849 123.472 L612.849 123.472  Z" fill="#4682b4" fill-rule="evenodd" fill-opacity="1"/>
<polyline clip-path="url(#clip991)" style="stroke:#000000; stroke-linecap:round; stroke-linejoin:round; stroke-width:4; stroke-opacity:1; fill:none" points="612.849,123.472 612.849,1423.18 690.077,1423.18 690.077,123.472 612.849,123.472 "/>
<path clip-path="url(#clip991)" d="M709.384 870.9 L709.384 1423.18 L786.611 1423.18 L786.611 870.9 L709.384 870.9 L709.384 870.9  Z" fill="#4682b4" fill-rule="evenodd" fill-opacity="1"/>
<polyline clip-path="url(#clip991)" style="stroke:#000000; stroke-linecap:round; stroke-linejoin:round; stroke-width:4; stroke-opacity:1; fill:none" points="709.384,870.9 709.384,1423.18 786.611,1423.18 786.611,870.9 709.384,870.9 "/>
<path clip-path="url(#clip991)" d="M805.918 919.096 L805.918 1423.18 L883.146 1423.18 L883.146 919.096 L805.918 919.096 L805.918 919.096  Z" fill="#4682b4" fill-rule="evenodd" fill-opacity="1"/>
<polyline clip-path="url(#clip991)" style="stroke:#000000; stroke-linecap:round; stroke-linejoin:round; stroke-width:4; stroke-opacity:1; fill:none" points="805.918,919.096 805.918,1423.18 883.146,1423.18 883.146,919.096 805.918,919.096 "/>
<path clip-path="url(#clip991)" d="M902.453 1091.95 L902.453 1423.18 L979.681 1423.18 L979.681 1091.95 L902.453 1091.95 L902.453 1091.95  Z" fill="#4682b4" fill-rule="evenodd" fill-opacity="1"/>
<polyline clip-path="url(#clip991)" style="stroke:#000000; stroke-linecap:round; stroke-linejoin:round; stroke-width:4; stroke-opacity:1; fill:none" points="902.453,1091.95 902.453,1423.18 979.681,1423.18 979.681,1091.95 902.453,1091.95 "/>
<path clip-path="url(#clip991)" d="M998.988 875.773 L998.988 1423.18 L1076.22 1423.18 L1076.22 875.773 L998.988 875.773 L998.988 875.773  Z" fill="#4682b4" fill-rule="evenodd" fill-opacity="1"/>
<polyline clip-path="url(#clip991)" style="stroke:#000000; stroke-linecap:round; stroke-linejoin:round; stroke-width:4; stroke-opacity:1; fill:none" points="998.988,875.773 998.988,1423.18 1076.22,1423.18 1076.22,875.773 998.988,875.773 "/>
<path clip-path="url(#clip991)" d="M1095.52 1149.83 L1095.52 1423.18 L1172.75 1423.18 L1172.75 1149.83 L1095.52 1149.83 L1095.52 1149.83  Z" fill="#4682b4" fill-rule="evenodd" fill-opacity="1"/>
<polyline clip-path="url(#clip991)" style="stroke:#000000; stroke-linecap:round; stroke-linejoin:round; stroke-width:4; stroke-opacity:1; fill:none" points="1095.52,1149.83 1095.52,1423.18 1172.75,1423.18 1172.75,1149.83 1095.52,1149.83 "/>
<path clip-path="url(#clip991)" d="M1192.06 1239.71 L1192.06 1423.18 L1269.28 1423.18 L1269.28 1239.71 L1192.06 1239.71 L1192.06 1239.71  Z" fill="#4682b4" fill-rule="evenodd" fill-opacity="1"/>
<polyline clip-path="url(#clip991)" style="stroke:#000000; stroke-linecap:round; stroke-linejoin:round; stroke-width:4; stroke-opacity:1; fill:none" points="1192.06,1239.71 1192.06,1423.18 1269.28,1423.18 1269.28,1239.71 1192.06,1239.71 "/>
<path clip-path="url(#clip991)" d="M1288.59 341.818 L1288.59 1423.18 L1365.82 1423.18 L1365.82 341.818 L1288.59 341.818 L1288.59 341.818  Z" fill="#4682b4" fill-rule="evenodd" fill-opacity="1"/>
<polyline clip-path="url(#clip991)" style="stroke:#000000; stroke-linecap:round; stroke-linejoin:round; stroke-width:4; stroke-opacity:1; fill:none" points="1288.59,341.818 1288.59,1423.18 1365.82,1423.18 1365.82,341.818 1288.59,341.818 "/>
<path clip-path="url(#clip991)" d="M1385.13 177.943 L1385.13 1423.18 L1462.35 1423.18 L1462.35 177.943 L1385.13 177.943 L1385.13 177.943  Z" fill="#4682b4" fill-rule="evenodd" fill-opacity="1"/>
<polyline clip-path="url(#clip991)" style="stroke:#000000; stroke-linecap:round; stroke-linejoin:round; stroke-width:4; stroke-opacity:1; fill:none" points="1385.13,177.943 1385.13,1423.18 1462.35,1423.18 1462.35,177.943 1385.13,177.943 "/>
<path clip-path="url(#clip991)" d="M1481.66 428.98 L1481.66 1423.18 L1558.89 1423.18 L1558.89 428.98 L1481.66 428.98 L1481.66 428.98  Z" fill="#4682b4" fill-rule="evenodd" fill-opacity="1"/>
<polyline clip-path="url(#clip991)" style="stroke:#000000; stroke-linecap:round; stroke-linejoin:round; stroke-width:4; stroke-opacity:1; fill:none" points="1481.66,428.98 1481.66,1423.18 1558.89,1423.18 1558.89,428.98 1481.66,428.98 "/>
<path clip-path="url(#clip991)" d="M1578.2 905.101 L1578.2 1423.18 L1655.42 1423.18 L1655.42 905.101 L1578.2 905.101 L1578.2 905.101  Z" fill="#4682b4" fill-rule="evenodd" fill-opacity="1"/>
<polyline clip-path="url(#clip991)" style="stroke:#000000; stroke-linecap:round; stroke-linejoin:round; stroke-width:4; stroke-opacity:1; fill:none" points="1578.2,905.101 1578.2,1423.18 1655.42,1423.18 1655.42,905.101 1578.2,905.101 "/>
<path clip-path="url(#clip991)" d="M1674.73 1291.44 L1674.73 1423.18 L1751.96 1423.18 L1751.96 1291.44 L1674.73 1291.44 L1674.73 1291.44  Z" fill="#4682b4" fill-rule="evenodd" fill-opacity="1"/>
<polyline clip-path="url(#clip991)" style="stroke:#000000; stroke-linecap:round; stroke-linejoin:round; stroke-width:4; stroke-opacity:1; fill:none" points="1674.73,1291.44 1674.73,1423.18 1751.96,1423.18 1751.96,1291.44 1674.73,1291.44 "/>
<path clip-path="url(#clip991)" d="M1771.27 917.581 L1771.27 1423.18 L1848.49 1423.18 L1848.49 917.581 L1771.27 917.581 L1771.27 917.581  Z" fill="#4682b4" fill-rule="evenodd" fill-opacity="1"/>
<polyline clip-path="url(#clip991)" style="stroke:#000000; stroke-linecap:round; stroke-linejoin:round; stroke-width:4; stroke-opacity:1; fill:none" points="1771.27,917.581 1771.27,1423.18 1848.49,1423.18 1848.49,917.581 1771.27,917.581 "/>
<path clip-path="url(#clip991)" d="M1867.8 1090.85 L1867.8 1423.18 L1945.03 1423.18 L1945.03 1090.85 L1867.8 1090.85 L1867.8 1090.85  Z" fill="#4682b4" fill-rule="evenodd" fill-opacity="1"/>
<polyline clip-path="url(#clip991)" style="stroke:#000000; stroke-linecap:round; stroke-linejoin:round; stroke-width:4; stroke-opacity:1; fill:none" points="1867.8,1090.85 1867.8,1423.18 1945.03,1423.18 1945.03,1090.85 1867.8,1090.85 "/>
<path clip-path="url(#clip991)" d="M1964.33 852.617 L1964.33 1423.18 L2041.56 1423.18 L2041.56 852.617 L1964.33 852.617 L1964.33 852.617  Z" fill="#4682b4" fill-rule="evenodd" fill-opacity="1"/>
<polyline clip-path="url(#clip991)" style="stroke:#000000; stroke-linecap:round; stroke-linejoin:round; stroke-width:4; stroke-opacity:1; fill:none" points="1964.33,852.617 1964.33,1423.18 2041.56,1423.18 2041.56,852.617 1964.33,852.617 "/>
<path clip-path="url(#clip991)" d="M2060.87 546.001 L2060.87 1423.18 L2138.1 1423.18 L2138.1 546.001 L2060.87 546.001 L2060.87 546.001  Z" fill="#4682b4" fill-rule="evenodd" fill-opacity="1"/>
<polyline clip-path="url(#clip991)" style="stroke:#000000; stroke-linecap:round; stroke-linejoin:round; stroke-width:4; stroke-opacity:1; fill:none" points="2060.87,546.001 2060.87,1423.18 2138.1,1423.18 2138.1,546.001 2060.87,546.001 "/>
<path clip-path="url(#clip991)" d="M2157.4 1208.33 L2157.4 1423.18 L2234.63 1423.18 L2234.63 1208.33 L2157.4 1208.33 L2157.4 1208.33  Z" fill="#4682b4" fill-rule="evenodd" fill-opacity="1"/>
<polyline clip-path="url(#clip991)" style="stroke:#000000; stroke-linecap:round; stroke-linejoin:round; stroke-width:4; stroke-opacity:1; fill:none" points="2157.4,1208.33 2157.4,1423.18 2234.63,1423.18 2234.63,1208.33 2157.4,1208.33 "/>
<circle clip-path="url(#clip991)" style="fill:#4682b4; stroke:none; fill-opacity:0" cx="361.859" cy="909.903" r="2"/>
<circle clip-path="url(#clip991)" style="fill:#4682b4; stroke:none; fill-opacity:0" cx="458.393" cy="1279.89" r="2"/>
<circle clip-path="url(#clip991)" style="fill:#4682b4; stroke:none; fill-opacity:0" cx="554.928" cy="175.262" r="2"/>
<circle clip-path="url(#clip991)" style="fill:#4682b4; stroke:none; fill-opacity:0" cx="651.463" cy="123.472" r="2"/>
<circle clip-path="url(#clip991)" style="fill:#4682b4; stroke:none; fill-opacity:0" cx="747.997" cy="870.9" r="2"/>
<circle clip-path="url(#clip991)" style="fill:#4682b4; stroke:none; fill-opacity:0" cx="844.532" cy="919.096" r="2"/>
<circle clip-path="url(#clip991)" style="fill:#4682b4; stroke:none; fill-opacity:0" cx="941.067" cy="1091.95" r="2"/>
<circle clip-path="url(#clip991)" style="fill:#4682b4; stroke:none; fill-opacity:0" cx="1037.6" cy="875.773" r="2"/>
<circle clip-path="url(#clip991)" style="fill:#4682b4; stroke:none; fill-opacity:0" cx="1134.14" cy="1149.83" r="2"/>
<circle clip-path="url(#clip991)" style="fill:#4682b4; stroke:none; fill-opacity:0" cx="1230.67" cy="1239.71" r="2"/>
<circle clip-path="url(#clip991)" style="fill:#4682b4; stroke:none; fill-opacity:0" cx="1327.21" cy="341.818" r="2"/>
<circle clip-path="url(#clip991)" style="fill:#4682b4; stroke:none; fill-opacity:0" cx="1423.74" cy="177.943" r="2"/>
<circle clip-path="url(#clip991)" style="fill:#4682b4; stroke:none; fill-opacity:0" cx="1520.28" cy="428.98" r="2"/>
<circle clip-path="url(#clip991)" style="fill:#4682b4; stroke:none; fill-opacity:0" cx="1616.81" cy="905.101" r="2"/>
<circle clip-path="url(#clip991)" style="fill:#4682b4; stroke:none; fill-opacity:0" cx="1713.34" cy="1291.44" r="2"/>
<circle clip-path="url(#clip991)" style="fill:#4682b4; stroke:none; fill-opacity:0" cx="1809.88" cy="917.581" r="2"/>
<circle clip-path="url(#clip991)" style="fill:#4682b4; stroke:none; fill-opacity:0" cx="1906.41" cy="1090.85" r="2"/>
<circle clip-path="url(#clip991)" style="fill:#4682b4; stroke:none; fill-opacity:0" cx="2002.95" cy="852.617" r="2"/>
<circle clip-path="url(#clip991)" style="fill:#4682b4; stroke:none; fill-opacity:0" cx="2099.48" cy="546.001" r="2"/>
<circle clip-path="url(#clip991)" style="fill:#4682b4; stroke:none; fill-opacity:0" cx="2196.02" cy="1208.33" r="2"/>
</svg>
