<?xml version="1.0" encoding="utf-8"?>
<svg xmlns="http://www.w3.org/2000/svg" xmlns:xlink="http://www.w3.org/1999/xlink" width="600" height="400" viewBox="0 0 2400 1600">
<defs>
  <clipPath id="clip400">
    <rect x="0" y="0" width="2400" height="1600"/>
  </clipPath>
</defs>
<path clip-path="url(#clip400)" d="M0 1600 L2400 1600 L2400 0 L0 0  Z" fill="#ffffff" fill-rule="evenodd" fill-opacity="1"/>
<defs>
  <clipPath id="clip401">
    <rect x="175" y="123" width="2178" height="1301"/>
  </clipPath>
</defs>
<path clip-path="url(#clip400)" d="M175.445 1423.18 L2352.76 1423.18 L2352.76 123.472 L175.445 123.472  Z" fill="#ffffff" fill-rule="evenodd" fill-opacity="1"/>
<polyline clip-path="url(#clip401)" style="stroke:#000000; stroke-linecap:round; stroke-linejoin:round; stroke-width:2; stroke-opacity:0.1; fill:none" points="195.147,1423.18 195.147,123.472 "/>
<polyline clip-path="url(#clip401)" style="stroke:#000000; stroke-linecap:round; stroke-linejoin:round; stroke-width:2; stroke-opacity:0.1; fill:none" points="614.345,1423.18 614.345,123.472 "/>
<polyline clip-path="url(#clip401)" style="stroke:#000000; stroke-linecap:round; stroke-linejoin:round; stroke-width:2; stroke-opacity:0.1; fill:none" points="1033.54,1423.18 1033.54,123.472 "/>
<polyline clip-path="url(#clip401)" style="stroke:#000000; stroke-linecap:round; stroke-linejoin:round; stroke-width:2; stroke-opacity:0.1; fill:none" points="1452.74,1423.18 1452.74,123.472 "/>
<polyline clip-path="url(#clip401)" style="stroke:#000000; stroke-linecap:round; stroke-linejoin:round; stroke-width:2; stroke-opacity:0.1; fill:none" points="1871.94,1423.18 1871.94,123.472 "/>
<polyline clip-path="url(#clip401)" style="stroke:#000000; stroke-linecap:round; stroke-linejoin:round; stroke-width:2; stroke-opacity:0.1; fill:none" points="2291.13,1423.18 2291.13,123.472 "/>
<polyline clip-path="url(#clip401)" style="stroke:#000000; stroke-linecap:round; stroke-linejoin:round; stroke-width:2; stroke-opacity:0.1; fill:none" points="175.445,1168.48 2352.76,1168.48 "/>
<polyline clip-path="url(#clip401)" style="stroke:#000000; stroke-linecap:round; stroke-linejoin:round; stroke-width:2; stroke-opacity:0.1; fill:none" points="175.445,903.151 2352.76,903.151 "/>
<polyline clip-path="url(#clip401)" style="stroke:#000000; stroke-linecap:round; stroke-linejoin:round; stroke-width:2; stroke-opacity:0.1; fill:none" points="175.445,637.825 2352.76,637.825 "/>
<polyline clip-path="url(#clip401)" style="stroke:#000000; stroke-linecap:round; stroke-linejoin:round; stroke-width:2; stroke-opacity:0.1; fill:none" points="175.445,372.499 2352.76,372.499 "/>
<polyline clip-path="url(#clip400)" style="stroke:#000000; stroke-linecap:round; stroke-linejoin:round; stroke-width:4; stroke-opacity:1; fill:none" points="175.445,1423.18 2352.76,1423.18 "/>
<polyline clip-path="url(#clip400)" style="stroke:#000000; stroke-linecap:round; stroke-linejoin:round; stroke-width:4; stroke-opacity:1; fill:none" points="195.147,1423.18 195.147,1404.28 "/>
<polyline clip-path="url(#clip400)" style="stroke:#000000; stroke-linecap:round; stroke-linejoin:round; stroke-width:4; stroke-opacity:1; fill:none" points="614.345,1423.18 614.345,1404.28 "/>
<polyline clip-path="url(#clip400)" style="stroke:#000000; stroke-linecap:round; stroke-linejoin:round; stroke-width:4; stroke-opacity:1; fill:none" points="1033.54,1423.18 1033.54,1404.28 "/>
<polyline clip-path="url(#clip400)" style="stroke:#000000; stroke-linecap:round; stroke-linejoin:round; stroke-width:4; stroke-opacity:1; fill:none" points="1452.74,1423.18 1452.74,1404.28 "/>
<polyline clip-path="url(#clip400)" style="stroke:#000000; stroke-linecap:round; stroke-linejoin:round; stroke-width:4; stroke-opacity:1; fill:none" points="1871.94,1423.18 1871.94,1404.28 "/>
<polyline clip-path="url(#clip400)" style="stroke:#000000; stroke-linecap:round; stroke-linejoin:round; stroke-width:4; stroke-opacity:1; fill:none" points="2291.13,1423.18 2291.13,1404.28 "/>
<path clip-path="url(#clip400)" d="M195.147 1454.1 Q191.536 1454.1 189.708 1457.66 Q187.902 1461.2 187.902 1468.33 Q187.902 1475.44 189.708 1479.01 Q191.536 1482.55 195.147 1482.55 Q198.782 1482.55 200.587 1479.01 Q202.416 1475.44 202.416 1468.33 Q202.416 1461.2 200.587 1457.66 Q198.782 1454.1 195.147 1454.1 M195.147 1450.39 Q200.958 1450.39 204.013 1455 Q207.092 1459.58 207.092 1468.33 Q207.092 1477.06 204.013 1481.67 Q200.958 1486.25 195.147 1486.25 Q189.337 1486.25 186.259 1481.67 Q183.203 1477.06 183.203 1468.33 Q183.203 1459.58 186.259 1455 Q189.337 1450.39 195.147 1450.39 Z" fill="#000000" fill-rule="nonzero" fill-opacity="1" /><path clip-path="url(#clip400)" d="M589.032 1481.64 L596.671 1481.64 L596.671 1455.28 L588.361 1456.95 L588.361 1452.69 L596.625 1451.02 L601.301 1451.02 L601.301 1481.64 L608.94 1481.64 L608.94 1485.58 L589.032 1485.58 L589.032 1481.64 Z" fill="#000000" fill-rule="nonzero" fill-opacity="1" /><path clip-path="url(#clip400)" d="M628.384 1454.1 Q624.773 1454.1 622.944 1457.66 Q621.139 1461.2 621.139 1468.33 Q621.139 1475.44 622.944 1479.01 Q624.773 1482.55 628.384 1482.55 Q632.018 1482.55 633.824 1479.01 Q635.653 1475.44 635.653 1468.33 Q635.653 1461.2 633.824 1457.66 Q632.018 1454.1 628.384 1454.1 M628.384 1450.39 Q634.194 1450.39 637.25 1455 Q640.328 1459.58 640.328 1468.33 Q640.328 1477.06 637.25 1481.67 Q634.194 1486.25 628.384 1486.25 Q622.574 1486.25 619.495 1481.67 Q616.44 1477.06 616.44 1468.33 Q616.44 1459.58 619.495 1455 Q622.574 1450.39 628.384 1450.39 Z" fill="#000000" fill-rule="nonzero" fill-opacity="1" /><path clip-path="url(#clip400)" d="M1012.32 1481.64 L1028.63 1481.64 L1028.63 1485.58 L1006.69 1485.58 L1006.69 1481.64 Q1009.35 1478.89 1013.94 1474.26 Q1018.54 1469.61 1019.72 1468.27 Q1021.97 1465.74 1022.85 1464.01 Q1023.75 1462.25 1023.75 1460.56 Q1023.75 1457.8 1021.81 1456.07 Q1019.88 1454.33 1016.78 1454.33 Q1014.58 1454.33 1012.13 1455.09 Q1009.7 1455.86 1006.92 1457.41 L1006.92 1452.69 Q1009.75 1451.55 1012.2 1450.97 Q1014.65 1450.39 1016.69 1450.39 Q1022.06 1450.39 1025.26 1453.08 Q1028.45 1455.77 1028.45 1460.26 Q1028.45 1462.39 1027.64 1464.31 Q1026.85 1466.2 1024.75 1468.8 Q1024.17 1469.47 1021.07 1472.69 Q1017.96 1475.88 1012.32 1481.64 Z" fill="#000000" fill-rule="nonzero" fill-opacity="1" /><path clip-path="url(#clip400)" d="M1048.45 1454.1 Q1044.84 1454.1 1043.01 1457.66 Q1041.2 1461.2 1041.2 1468.33 Q1041.2 1475.44 1043.01 1479.01 Q1044.84 1482.55 1048.45 1482.55 Q1052.08 1482.55 1053.89 1479.01 Q1055.72 1475.44 1055.72 1468.33 Q1055.72 1461.2 1053.89 1457.66 Q1052.08 1454.1 1048.45 1454.1 M1048.45 1450.39 Q1054.26 1450.39 1057.32 1455 Q1060.39 1459.58 1060.39 1468.33 Q1060.39 1477.06 1057.32 1481.67 Q1054.26 1486.25 1048.45 1486.25 Q1042.64 1486.25 1039.56 1481.67 Q1036.5 1477.06 1036.5 1468.33 Q1036.5 1459.58 1039.56 1455 Q1042.64 1450.39 1048.45 1450.39 Z" fill="#000000" fill-rule="nonzero" fill-opacity="1" /><path clip-path="url(#clip400)" d="M1441.58 1466.95 Q1444.94 1467.66 1446.81 1469.93 Q1448.71 1472.2 1448.71 1475.53 Q1448.71 1480.65 1445.19 1483.45 Q1441.67 1486.25 1435.19 1486.25 Q1433.02 1486.25 1430.7 1485.81 Q1428.41 1485.39 1425.96 1484.54 L1425.96 1480.02 Q1427.9 1481.16 1430.22 1481.74 Q1432.53 1482.32 1435.05 1482.32 Q1439.45 1482.32 1441.74 1480.58 Q1444.06 1478.84 1444.06 1475.53 Q1444.06 1472.48 1441.91 1470.77 Q1439.78 1469.03 1435.96 1469.03 L1431.93 1469.03 L1431.93 1465.19 L1436.14 1465.19 Q1439.59 1465.19 1441.42 1463.82 Q1443.25 1462.43 1443.25 1459.84 Q1443.25 1457.18 1441.35 1455.77 Q1439.48 1454.33 1435.96 1454.33 Q1434.04 1454.33 1431.84 1454.75 Q1429.64 1455.16 1427 1456.04 L1427 1451.88 Q1429.66 1451.14 1431.98 1450.77 Q1434.31 1450.39 1436.37 1450.39 Q1441.7 1450.39 1444.8 1452.83 Q1447.9 1455.23 1447.9 1459.35 Q1447.9 1462.22 1446.26 1464.21 Q1444.61 1466.18 1441.58 1466.95 Z" fill="#000000" fill-rule="nonzero" fill-opacity="1" /><path clip-path="url(#clip400)" d="M1467.58 1454.1 Q1463.97 1454.1 1462.14 1457.66 Q1460.33 1461.2 1460.33 1468.33 Q1460.33 1475.44 1462.14 1479.01 Q1463.97 1482.55 1467.58 1482.55 Q1471.21 1482.55 1473.02 1479.01 Q1474.85 1475.44 1474.85 1468.33 Q1474.85 1461.2 1473.02 1457.66 Q1471.21 1454.1 1467.58 1454.1 M1467.58 1450.39 Q1473.39 1450.39 1476.44 1455 Q1479.52 1459.58 1479.52 1468.33 Q1479.52 1477.06 1476.44 1481.67 Q1473.39 1486.25 1467.58 1486.25 Q1461.77 1486.25 1458.69 1481.67 Q1455.63 1477.06 1455.63 1468.33 Q1455.63 1459.58 1458.69 1455 Q1461.77 1450.39 1467.58 1450.39 Z" fill="#000000" fill-rule="nonzero" fill-opacity="1" /><path clip-path="url(#clip400)" d="M1860.11 1455.09 L1848.3 1473.54 L1860.11 1473.54 L1860.11 1455.09 M1858.88 1451.02 L1864.76 1451.02 L1864.76 1473.54 L1869.69 1473.54 L1869.69 1477.43 L1864.76 1477.43 L1864.76 1485.58 L1860.11 1485.58 L1860.11 1477.43 L1844.51 1477.43 L1844.51 1472.92 L1858.88 1451.02 Z" fill="#000000" fill-rule="nonzero" fill-opacity="1" /><path clip-path="url(#clip400)" d="M1887.42 1454.1 Q1883.81 1454.1 1881.98 1457.66 Q1880.18 1461.2 1880.18 1468.33 Q1880.18 1475.44 1881.98 1479.01 Q1883.81 1482.55 1887.42 1482.55 Q1891.06 1482.55 1892.86 1479.01 Q1894.69 1475.44 1894.69 1468.33 Q1894.69 1461.2 1892.86 1457.66 Q1891.06 1454.1 1887.42 1454.1 M1887.42 1450.39 Q1893.23 1450.39 1896.29 1455 Q1899.37 1459.58 1899.37 1468.33 Q1899.37 1477.06 1896.29 1481.67 Q1893.23 1486.25 1887.42 1486.25 Q1881.61 1486.25 1878.53 1481.67 Q1875.48 1477.06 1875.48 1468.33 Q1875.48 1459.58 1878.53 1455 Q1881.61 1450.39 1887.42 1450.39 Z" fill="#000000" fill-rule="nonzero" fill-opacity="1" /><path clip-path="url(#clip400)" d="M2265.83 1451.02 L2284.19 1451.02 L2284.19 1454.96 L2270.12 1454.96 L2270.12 1463.43 Q2271.13 1463.08 2272.15 1462.92 Q2273.17 1462.73 2274.19 1462.73 Q2279.98 1462.73 2283.36 1465.9 Q2286.74 1469.08 2286.74 1474.49 Q2286.74 1480.07 2283.26 1483.17 Q2279.79 1486.25 2273.47 1486.25 Q2271.3 1486.25 2269.03 1485.88 Q2266.78 1485.51 2264.37 1484.77 L2264.37 1480.07 Q2266.46 1481.2 2268.68 1481.76 Q2270.9 1482.32 2273.38 1482.32 Q2277.38 1482.32 2279.72 1480.21 Q2282.06 1478.1 2282.06 1474.49 Q2282.06 1470.88 2279.72 1468.77 Q2277.38 1466.67 2273.38 1466.67 Q2271.5 1466.67 2269.63 1467.08 Q2267.78 1467.5 2265.83 1468.38 L2265.83 1451.02 Z" fill="#000000" fill-rule="nonzero" fill-opacity="1" /><path clip-path="url(#clip400)" d="M2305.95 1454.1 Q2302.34 1454.1 2300.51 1457.66 Q2298.7 1461.2 2298.7 1468.33 Q2298.7 1475.44 2300.51 1479.01 Q2302.34 1482.55 2305.95 1482.55 Q2309.58 1482.55 2311.39 1479.01 Q2313.22 1475.44 2313.22 1468.33 Q2313.22 1461.2 2311.39 1457.66 Q2309.58 1454.1 2305.95 1454.1 M2305.95 1450.39 Q2311.76 1450.39 2314.81 1455 Q2317.89 1459.58 2317.89 1468.33 Q2317.89 1477.06 2314.81 1481.67 Q2311.76 1486.25 2305.95 1486.25 Q2300.14 1486.25 2297.06 1481.67 Q2294 1477.06 2294 1468.33 Q2294 1459.58 2297.06 1455 Q2300.14 1450.39 2305.95 1450.39 Z" fill="#000000" fill-rule="nonzero" fill-opacity="1" /><path clip-path="url(#clip400)" d="M1170.27 1520.52 L1200.32 1520.52 L1200.32 1525.93 L1176.7 1525.93 L1176.7 1540 L1199.33 1540 L1199.33 1545.41 L1176.7 1545.41 L1176.7 1562.63 L1200.89 1562.63 L1200.89 1568.04 L1170.27 1568.04 L1170.27 1520.52 Z" fill="#000000" fill-rule="nonzero" fill-opacity="1" /><path clip-path="url(#clip400)" d="M1216.87 1562.7 L1216.87 1581.6 L1210.98 1581.6 L1210.98 1532.4 L1216.87 1532.4 L1216.87 1537.81 Q1218.71 1534.62 1221.51 1533.1 Q1224.35 1531.54 1228.26 1531.54 Q1234.75 1531.54 1238.8 1536.69 Q1242.87 1541.85 1242.87 1550.25 Q1242.87 1558.65 1238.8 1563.81 Q1234.75 1568.97 1228.26 1568.97 Q1224.35 1568.97 1221.51 1567.44 Q1218.71 1565.88 1216.87 1562.7 M1236.79 1550.25 Q1236.79 1543.79 1234.12 1540.13 Q1231.48 1536.44 1226.83 1536.44 Q1222.18 1536.44 1219.51 1540.13 Q1216.87 1543.79 1216.87 1550.25 Q1216.87 1556.71 1219.51 1560.4 Q1222.18 1564.07 1226.83 1564.07 Q1231.48 1564.07 1234.12 1560.4 Q1236.79 1556.71 1236.79 1550.25 Z" fill="#000000" fill-rule="nonzero" fill-opacity="1" /><path clip-path="url(#clip400)" d="M1266.39 1536.5 Q1261.68 1536.5 1258.94 1540.19 Q1256.21 1543.85 1256.21 1550.25 Q1256.21 1556.65 1258.91 1560.34 Q1261.65 1564 1266.39 1564 Q1271.07 1564 1273.81 1560.31 Q1276.55 1556.62 1276.55 1550.25 Q1276.55 1543.92 1273.81 1540.23 Q1271.07 1536.5 1266.39 1536.5 M1266.39 1531.54 Q1274.03 1531.54 1278.39 1536.5 Q1282.75 1541.47 1282.75 1550.25 Q1282.75 1559 1278.39 1564 Q1274.03 1568.97 1266.39 1568.97 Q1258.72 1568.97 1254.36 1564 Q1250.03 1559 1250.03 1550.25 Q1250.03 1541.47 1254.36 1536.5 Q1258.72 1531.54 1266.39 1531.54 Z" fill="#000000" fill-rule="nonzero" fill-opacity="1" /><path clip-path="url(#clip400)" d="M1318.11 1533.76 L1318.11 1539.24 Q1315.63 1537.87 1313.12 1537.2 Q1310.63 1536.5 1308.09 1536.5 Q1302.39 1536.5 1299.24 1540.13 Q1296.09 1543.73 1296.09 1550.25 Q1296.09 1556.78 1299.24 1560.4 Q1302.39 1564 1308.09 1564 Q1310.63 1564 1313.12 1563.33 Q1315.63 1562.63 1318.11 1561.26 L1318.11 1566.68 Q1315.66 1567.82 1313.02 1568.39 Q1310.41 1568.97 1307.45 1568.97 Q1299.4 1568.97 1294.66 1563.91 Q1289.91 1558.85 1289.91 1550.25 Q1289.91 1541.53 1294.69 1536.53 Q1299.49 1531.54 1307.83 1531.54 Q1310.54 1531.54 1313.12 1532.11 Q1315.69 1532.65 1318.11 1533.76 Z" fill="#000000" fill-rule="nonzero" fill-opacity="1" /><path clip-path="url(#clip400)" d="M1357.93 1546.53 L1357.93 1568.04 L1352.07 1568.04 L1352.07 1546.72 Q1352.07 1541.66 1350.1 1539.14 Q1348.13 1536.63 1344.18 1536.63 Q1339.44 1536.63 1336.7 1539.65 Q1333.96 1542.68 1333.96 1547.9 L1333.96 1568.04 L1328.08 1568.04 L1328.08 1518.52 L1333.96 1518.52 L1333.96 1537.93 Q1336.06 1534.72 1338.9 1533.13 Q1341.76 1531.54 1345.49 1531.54 Q1351.63 1531.54 1354.78 1535.36 Q1357.93 1539.14 1357.93 1546.53 Z" fill="#000000" fill-rule="nonzero" fill-opacity="1" /><polyline clip-path="url(#clip400)" style="stroke:#000000; stroke-linecap:round; stroke-linejoin:round; stroke-width:4; stroke-opacity:1; fill:none" points="175.445,1423.18 175.445,123.472 "/>
<polyline clip-path="url(#clip400)" style="stroke:#000000; stroke-linecap:round; stroke-linejoin:round; stroke-width:4; stroke-opacity:1; fill:none" points="175.445,1168.48 194.343,1168.48 "/>
<polyline clip-path="url(#clip400)" style="stroke:#000000; stroke-linecap:round; stroke-linejoin:round; stroke-width:4; stroke-opacity:1; fill:none" points="175.445,903.151 194.343,903.151 "/>
<polyline clip-path="url(#clip400)" style="stroke:#000000; stroke-linecap:round; stroke-linejoin:round; stroke-width:4; stroke-opacity:1; fill:none" points="175.445,637.825 194.343,637.825 "/>
<polyline clip-path="url(#clip400)" style="stroke:#000000; stroke-linecap:round; stroke-linejoin:round; stroke-width:4; stroke-opacity:1; fill:none" points="175.445,372.499 194.343,372.499 "/>
<path clip-path="url(#clip400)" d="M123.126 1181.82 L139.445 1181.82 L139.445 1185.76 L117.501 1185.76 L117.501 1181.82 Q120.163 1179.07 124.746 1174.44 Q129.353 1169.78 130.533 1168.44 Q132.779 1165.92 133.658 1164.18 Q134.561 1162.42 134.561 1160.73 Q134.561 1157.98 132.617 1156.24 Q130.695 1154.51 127.593 1154.51 Q125.394 1154.51 122.941 1155.27 Q120.51 1156.03 117.732 1157.59 L117.732 1152.86 Q120.556 1151.73 123.01 1151.15 Q125.464 1150.57 127.501 1150.57 Q132.871 1150.57 136.066 1153.26 Q139.26 1155.94 139.26 1160.43 Q139.26 1162.56 138.45 1164.48 Q137.663 1166.38 135.556 1168.97 Q134.978 1169.65 131.876 1172.86 Q128.774 1176.06 123.126 1181.82 Z" fill="#000000" fill-rule="nonzero" fill-opacity="1" /><path clip-path="url(#clip400)" d="M129.862 889.945 L118.056 908.394 L129.862 908.394 L129.862 889.945 M128.635 885.871 L134.515 885.871 L134.515 908.394 L139.445 908.394 L139.445 912.283 L134.515 912.283 L134.515 920.431 L129.862 920.431 L129.862 912.283 L114.26 912.283 L114.26 907.769 L128.635 885.871 Z" fill="#000000" fill-rule="nonzero" fill-opacity="1" /><path clip-path="url(#clip400)" d="M127.917 635.962 Q124.769 635.962 122.918 638.114 Q121.089 640.267 121.089 644.017 Q121.089 647.744 122.918 649.92 Q124.769 652.073 127.917 652.073 Q131.066 652.073 132.894 649.92 Q134.746 647.744 134.746 644.017 Q134.746 640.267 132.894 638.114 Q131.066 635.962 127.917 635.962 M137.2 621.309 L137.2 625.568 Q135.441 624.735 133.635 624.295 Q131.853 623.855 130.093 623.855 Q125.464 623.855 123.01 626.98 Q120.58 630.105 120.232 636.424 Q121.598 634.411 123.658 633.346 Q125.718 632.258 128.195 632.258 Q133.404 632.258 136.413 635.429 Q139.445 638.577 139.445 644.017 Q139.445 649.341 136.297 652.559 Q133.149 655.776 127.917 655.776 Q121.922 655.776 118.751 651.193 Q115.58 646.586 115.58 637.86 Q115.58 629.665 119.468 624.804 Q123.357 619.92 129.908 619.92 Q131.667 619.92 133.45 620.267 Q135.255 620.614 137.2 621.309 Z" fill="#000000" fill-rule="nonzero" fill-opacity="1" /><path clip-path="url(#clip400)" d="M127.593 373.367 Q124.26 373.367 122.339 375.149 Q120.441 376.932 120.441 380.057 Q120.441 383.182 122.339 384.964 Q124.26 386.747 127.593 386.747 Q130.927 386.747 132.848 384.964 Q134.769 383.159 134.769 380.057 Q134.769 376.932 132.848 375.149 Q130.95 373.367 127.593 373.367 M122.918 371.376 Q119.908 370.636 118.218 368.575 Q116.552 366.515 116.552 363.552 Q116.552 359.409 119.492 357.001 Q122.455 354.594 127.593 354.594 Q132.755 354.594 135.695 357.001 Q138.635 359.409 138.635 363.552 Q138.635 366.515 136.945 368.575 Q135.279 370.636 132.292 371.376 Q135.672 372.163 137.547 374.455 Q139.445 376.747 139.445 380.057 Q139.445 385.08 136.367 387.765 Q133.311 390.45 127.593 390.45 Q121.876 390.45 118.797 387.765 Q115.742 385.08 115.742 380.057 Q115.742 376.747 117.64 374.455 Q119.538 372.163 122.918 371.376 M121.205 363.992 Q121.205 366.677 122.871 368.182 Q124.561 369.686 127.593 369.686 Q130.603 369.686 132.292 368.182 Q134.005 366.677 134.005 363.992 Q134.005 361.307 132.292 359.802 Q130.603 358.298 127.593 358.298 Q124.561 358.298 122.871 359.802 Q121.205 361.307 121.205 363.992 Z" fill="#000000" fill-rule="nonzero" fill-opacity="1" /><path clip-path="url(#clip400)" d="M16.4842 840.023 L16.4842 833.593 L58.5933 833.593 L58.5933 810.454 L64.0042 810.454 L64.0042 840.023 L16.4842 840.023 Z" fill="#000000" fill-rule="nonzero" fill-opacity="1" /><path clip-path="url(#clip400)" d="M32.4621 791.293 Q32.4621 796.004 36.1542 798.741 Q39.8145 801.478 46.212 801.478 Q52.6095 801.478 56.3017 798.773 Q59.9619 796.036 59.9619 791.293 Q59.9619 786.614 56.2698 783.877 Q52.5777 781.14 46.212 781.14 Q39.8781 781.14 36.186 783.877 Q32.4621 786.614 32.4621 791.293 M27.4968 791.293 Q27.4968 783.654 32.4621 779.294 Q37.4273 774.933 46.212 774.933 Q54.9649 774.933 59.9619 779.294 Q64.9272 783.654 64.9272 791.293 Q64.9272 798.964 59.9619 803.324 Q54.9649 807.653 46.212 807.653 Q37.4273 807.653 32.4621 803.324 Q27.4968 798.964 27.4968 791.293 Z" fill="#000000" fill-rule="nonzero" fill-opacity="1" /><path clip-path="url(#clip400)" d="M29.4065 742.5 L34.9447 742.5 Q33.6716 744.983 33.035 747.656 Q32.3984 750.33 32.3984 753.194 Q32.3984 757.555 33.7352 759.751 Q35.072 761.915 37.7456 761.915 Q39.7826 761.915 40.9603 760.356 Q42.1061 758.796 43.1565 754.086 L43.6021 752.08 Q44.9389 745.842 47.3897 743.232 Q49.8086 740.59 54.1691 740.59 Q59.1344 740.59 62.0308 744.537 Q64.9272 748.452 64.9272 755.327 Q64.9272 758.192 64.3543 761.311 Q63.8132 764.398 62.6992 767.836 L56.6518 767.836 Q58.3387 764.589 59.198 761.438 Q60.0256 758.287 60.0256 755.2 Q60.0256 751.062 58.6251 748.834 Q57.1929 746.606 54.6147 746.606 Q52.2276 746.606 50.9545 748.229 Q49.6813 749.821 48.5037 755.263 L48.0262 757.3 Q46.8804 762.743 44.5251 765.162 Q42.138 767.581 38.0002 767.581 Q32.9713 767.581 30.2341 764.016 Q27.4968 760.451 27.4968 753.895 Q27.4968 750.648 27.9743 747.784 Q28.4517 744.919 29.4065 742.5 Z" fill="#000000" fill-rule="nonzero" fill-opacity="1" /><path clip-path="url(#clip400)" d="M29.4065 708.539 L34.9447 708.539 Q33.6716 711.022 33.035 713.695 Q32.3984 716.369 32.3984 719.233 Q32.3984 723.594 33.7352 725.79 Q35.072 727.954 37.7456 727.954 Q39.7826 727.954 40.9603 726.395 Q42.1061 724.835 43.1565 720.125 L43.6021 718.119 Q44.9389 711.881 47.3897 709.271 Q49.8086 706.629 54.1691 706.629 Q59.1344 706.629 62.0308 710.576 Q64.9272 714.491 64.9272 721.366 Q64.9272 724.23 64.3543 727.35 Q63.8132 730.437 62.6992 733.875 L56.6518 733.875 Q58.3387 730.628 59.198 727.477 Q60.0256 724.326 60.0256 721.239 Q60.0256 717.101 58.6251 714.873 Q57.1929 712.645 54.6147 712.645 Q52.2276 712.645 50.9545 714.268 Q49.6813 715.86 48.5037 721.302 L48.0262 723.339 Q46.8804 728.782 44.5251 731.201 Q42.138 733.62 38.0002 733.62 Q32.9713 733.62 30.2341 730.055 Q27.4968 726.49 27.4968 719.934 Q27.4968 716.687 27.9743 713.823 Q28.4517 710.958 29.4065 708.539 Z" fill="#000000" fill-rule="nonzero" fill-opacity="1" /><path clip-path="url(#clip400)" d="M1009.02 12.096 L1060.18 12.096 L1060.18 18.9825 L1038.71 18.9825 L1038.71 72.576 L1030.48 72.576 L1030.48 18.9825 L1009.02 18.9825 L1009.02 12.096 Z" fill="#000000" fill-rule="nonzero" fill-opacity="1" /><path clip-path="url(#clip400)" d="M1081.85 34.1734 Q1080.59 33.4443 1079.1 33.1202 Q1077.64 32.7556 1075.86 32.7556 Q1069.54 32.7556 1066.13 36.8875 Q1062.77 40.9789 1062.77 48.6757 L1062.77 72.576 L1055.28 72.576 L1055.28 27.2059 L1062.77 27.2059 L1062.77 34.2544 Q1065.12 30.1225 1068.89 28.1376 Q1072.65 26.1121 1078.04 26.1121 Q1078.81 26.1121 1079.74 26.2337 Q1080.68 26.3147 1081.81 26.5172 L1081.85 34.1734 Z" fill="#000000" fill-rule="nonzero" fill-opacity="1" /><path clip-path="url(#clip400)" d="M1110.29 49.7694 Q1101.25 49.7694 1097.77 51.8354 Q1094.29 53.9013 1094.29 58.8839 Q1094.29 62.8538 1096.88 65.2034 Q1099.51 67.5124 1104.01 67.5124 Q1110.21 67.5124 1113.93 63.1374 Q1117.7 58.7219 1117.7 51.4303 L1117.7 49.7694 L1110.29 49.7694 M1125.15 46.6907 L1125.15 72.576 L1117.7 72.576 L1117.7 65.6895 Q1115.15 69.8214 1111.34 71.8063 Q1107.53 73.7508 1102.02 73.7508 Q1095.06 73.7508 1090.92 69.8619 Q1086.83 65.9325 1086.83 59.3701 Q1086.83 51.7138 1091.94 47.825 Q1097.08 43.9361 1107.25 43.9361 L1117.7 43.9361 L1117.7 43.2069 Q1117.7 38.0623 1114.3 35.2672 Q1110.94 32.4315 1104.82 32.4315 Q1100.93 32.4315 1097.24 33.3632 Q1093.56 34.295 1090.15 36.1584 L1090.15 29.2718 Q1094.25 27.692 1098.09 26.9223 Q1101.94 26.1121 1105.59 26.1121 Q1115.43 26.1121 1120.29 31.2163 Q1125.15 36.3204 1125.15 46.6907 Z" fill="#000000" fill-rule="nonzero" fill-opacity="1" /><path clip-path="url(#clip400)" d="M1140.51 27.2059 L1147.96 27.2059 L1147.96 72.576 L1140.51 72.576 L1140.51 27.2059 M1140.51 9.54393 L1147.96 9.54393 L1147.96 18.9825 L1140.51 18.9825 L1140.51 9.54393 Z" fill="#000000" fill-rule="nonzero" fill-opacity="1" /><path clip-path="url(#clip400)" d="M1201.27 45.1919 L1201.27 72.576 L1193.82 72.576 L1193.82 45.4349 Q1193.82 38.994 1191.31 35.7938 Q1188.79 32.5936 1183.77 32.5936 Q1177.74 32.5936 1174.25 36.4419 Q1170.77 40.2903 1170.77 46.9338 L1170.77 72.576 L1163.27 72.576 L1163.27 27.2059 L1170.77 27.2059 L1170.77 34.2544 Q1173.44 30.163 1177.05 28.1376 Q1180.69 26.1121 1185.43 26.1121 Q1193.25 26.1121 1197.26 30.9732 Q1201.27 35.7938 1201.27 45.1919 Z" fill="#000000" fill-rule="nonzero" fill-opacity="1" /><path clip-path="url(#clip400)" d="M1216.14 27.2059 L1223.59 27.2059 L1223.59 72.576 L1216.14 72.576 L1216.14 27.2059 M1216.14 9.54393 L1223.59 9.54393 L1223.59 18.9825 L1216.14 18.9825 L1216.14 9.54393 Z" fill="#000000" fill-rule="nonzero" fill-opacity="1" /><path clip-path="url(#clip400)" d="M1276.9 45.1919 L1276.9 72.576 L1269.45 72.576 L1269.45 45.4349 Q1269.45 38.994 1266.94 35.7938 Q1264.42 32.5936 1259.4 32.5936 Q1253.37 32.5936 1249.88 36.4419 Q1246.4 40.2903 1246.4 46.9338 L1246.4 72.576 L1238.9 72.576 L1238.9 27.2059 L1246.4 27.2059 L1246.4 34.2544 Q1249.07 30.163 1252.68 28.1376 Q1256.32 26.1121 1261.06 26.1121 Q1268.88 26.1121 1272.89 30.9732 Q1276.9 35.7938 1276.9 45.1919 Z" fill="#000000" fill-rule="nonzero" fill-opacity="1" /><path clip-path="url(#clip400)" d="M1321.62 49.3643 Q1321.62 41.2625 1318.26 36.8065 Q1314.94 32.3505 1308.9 32.3505 Q1302.91 32.3505 1299.55 36.8065 Q1296.22 41.2625 1296.22 49.3643 Q1296.22 57.4256 1299.55 61.8816 Q1302.91 66.3376 1308.9 66.3376 Q1314.94 66.3376 1318.26 61.8816 Q1321.62 57.4256 1321.62 49.3643 M1329.08 66.9452 Q1329.08 78.5308 1323.93 84.1616 Q1318.79 89.8329 1308.17 89.8329 Q1304.25 89.8329 1300.76 89.2252 Q1297.28 88.6581 1294 87.4428 L1294 80.1917 Q1297.28 81.9741 1300.48 82.8248 Q1303.68 83.6755 1307 83.6755 Q1314.33 83.6755 1317.98 79.8271 Q1321.62 76.0193 1321.62 68.282 L1321.62 64.5957 Q1319.31 68.6061 1315.71 70.5911 Q1312.1 72.576 1307.08 72.576 Q1298.74 72.576 1293.63 66.2161 Q1288.53 59.8562 1288.53 49.3643 Q1288.53 38.832 1293.63 32.472 Q1298.74 26.1121 1307.08 26.1121 Q1312.1 26.1121 1315.71 28.0971 Q1319.31 30.082 1321.62 34.0924 L1321.62 27.2059 L1329.08 27.2059 L1329.08 66.9452 Z" fill="#000000" fill-rule="nonzero" fill-opacity="1" /><path clip-path="url(#clip400)" d="M1370.8 9.54393 L1378.26 9.54393 L1378.26 72.576 L1370.8 72.576 L1370.8 9.54393 Z" fill="#000000" fill-rule="nonzero" fill-opacity="1" /><path clip-path="url(#clip400)" d="M1411.43 32.4315 Q1405.44 32.4315 1401.95 37.1306 Q1398.47 41.7891 1398.47 49.9314 Q1398.47 58.0738 1401.91 62.7728 Q1405.4 67.4314 1411.43 67.4314 Q1417.39 67.4314 1420.87 62.7323 Q1424.35 58.0333 1424.35 49.9314 Q1424.35 41.8701 1420.87 37.1711 Q1417.39 32.4315 1411.43 32.4315 M1411.43 26.1121 Q1421.15 26.1121 1426.7 32.4315 Q1432.25 38.7509 1432.25 49.9314 Q1432.25 61.0714 1426.7 67.4314 Q1421.15 73.7508 1411.43 73.7508 Q1401.67 73.7508 1396.12 67.4314 Q1390.61 61.0714 1390.61 49.9314 Q1390.61 38.7509 1396.12 32.4315 Q1401.67 26.1121 1411.43 26.1121 Z" fill="#000000" fill-rule="nonzero" fill-opacity="1" /><path clip-path="url(#clip400)" d="M1473.53 28.5427 L1473.53 35.5912 Q1470.37 33.9709 1466.97 33.1607 Q1463.57 32.3505 1459.92 32.3505 Q1454.37 32.3505 1451.58 34.0519 Q1448.82 35.7533 1448.82 39.156 Q1448.82 41.7486 1450.81 43.2475 Q1452.79 44.7058 1458.79 46.0426 L1461.34 46.6097 Q1469.28 48.3111 1472.6 51.4303 Q1475.96 54.509 1475.96 60.0587 Q1475.96 66.3781 1470.94 70.0644 Q1465.96 73.7508 1457.21 73.7508 Q1453.56 73.7508 1449.59 73.0216 Q1445.66 72.3329 1441.29 70.9151 L1441.29 63.2184 Q1445.42 65.3654 1449.43 66.4591 Q1453.44 67.5124 1457.37 67.5124 Q1462.64 67.5124 1465.47 65.73 Q1468.31 63.9071 1468.31 60.6258 Q1468.31 57.5877 1466.24 55.9673 Q1464.22 54.3469 1457.29 52.8481 L1454.7 52.2405 Q1447.77 50.7821 1444.69 47.7845 Q1441.61 44.7463 1441.61 39.4801 Q1441.61 33.0797 1446.15 29.5959 Q1450.69 26.1121 1459.03 26.1121 Q1463.16 26.1121 1466.81 26.7198 Q1470.45 27.3274 1473.53 28.5427 Z" fill="#000000" fill-rule="nonzero" fill-opacity="1" /><path clip-path="url(#clip400)" d="M1516.76 28.5427 L1516.76 35.5912 Q1513.6 33.9709 1510.19 33.1607 Q1506.79 32.3505 1503.14 32.3505 Q1497.59 32.3505 1494.8 34.0519 Q1492.04 35.7533 1492.04 39.156 Q1492.04 41.7486 1494.03 43.2475 Q1496.01 44.7058 1502.01 46.0426 L1504.56 46.6097 Q1512.5 48.3111 1515.82 51.4303 Q1519.19 54.509 1519.19 60.0587 Q1519.19 66.3781 1514.16 70.0644 Q1509.18 73.7508 1500.43 73.7508 Q1496.78 73.7508 1492.81 73.0216 Q1488.89 72.3329 1484.51 70.9151 L1484.51 63.2184 Q1488.64 65.3654 1492.65 66.4591 Q1496.66 67.5124 1500.59 67.5124 Q1505.86 67.5124 1508.69 65.73 Q1511.53 63.9071 1511.53 60.6258 Q1511.53 57.5877 1509.46 55.9673 Q1507.44 54.3469 1500.51 52.8481 L1497.92 52.2405 Q1490.99 50.7821 1487.91 47.7845 Q1484.83 44.7463 1484.83 39.4801 Q1484.83 33.0797 1489.37 29.5959 Q1493.91 26.1121 1502.25 26.1121 Q1506.39 26.1121 1510.03 26.7198 Q1513.68 27.3274 1516.76 28.5427 Z" fill="#000000" fill-rule="nonzero" fill-opacity="1" /><polyline clip-path="url(#clip401)" style="stroke:#009af9; stroke-linecap:round; stroke-linejoin:round; stroke-width:4; stroke-opacity:1; fill:none" points="237.067,160.256 278.987,476.616 320.907,679.901 362.826,816.092 404.746,916.389 446.666,986.584 488.586,1044.16 530.505,1087.28 572.425,1122.61 614.345,1142.47 656.264,1162.52 698.184,1176.85 740.104,1191.24 782.024,1201.41 823.943,1209.83 865.863,1219.02 907.783,1229.77 949.703,1234.73 991.622,1246.26 1033.54,1249.47 1075.46,1259.12 1117.38,1265.24 1159.3,1273.72 1201.22,1280.78 1243.14,1285.54 1285.06,1290.04 1326.98,1295.66 1368.9,1303.28 1410.82,1308.22 1452.74,1313.09 1494.66,1321.54 1536.58,1326.45 1578.5,1326.48 1620.42,1335.05 1662.34,1338.1 1704.26,1341.62 1746.18,1344.11 1788.1,1354.03 1830.02,1354.99 1871.94,1357.16 1913.86,1362.96 1955.78,1364.46 1997.7,1368.92 2039.62,1368.64 2081.54,1374.33 2123.45,1373.5 2165.37,1376.48 2207.29,1377.31 2249.21,1381.79 2291.13,1386.4 "/>
<path clip-path="url(#clip400)" d="M2010.02 270.476 L2280.18 270.476 L2280.18 166.796 L2010.02 166.796  Z" fill="#ffffff" fill-rule="evenodd" fill-opacity="1"/>
<polyline clip-path="url(#clip400)" style="stroke:#000000; stroke-linecap:round; stroke-linejoin:round; stroke-width:4; stroke-opacity:1; fill:none" points="2010.02,270.476 2280.18,270.476 2280.18,166.796 2010.02,166.796 2010.02,270.476 "/>
<polyline clip-path="url(#clip400)" style="stroke:#009af9; stroke-linecap:round; stroke-linejoin:round; stroke-width:4; stroke-opacity:1; fill:none" points="2034.21,218.636 2179.36,218.636 "/>
<path clip-path="url(#clip400)" d="M2217.4 238.323 Q2215.59 242.953 2213.88 244.365 Q2212.17 245.777 2209.3 245.777 L2205.89 245.777 L2205.89 242.212 L2208.39 242.212 Q2210.15 242.212 2211.13 241.379 Q2212.1 240.545 2213.28 237.443 L2214.04 235.499 L2203.56 209.99 L2208.07 209.99 L2216.17 230.268 L2224.27 209.99 L2228.79 209.99 L2217.4 238.323 Z" fill="#000000" fill-rule="nonzero" fill-opacity="1" /><path clip-path="url(#clip400)" d="M2236.08 231.981 L2243.72 231.981 L2243.72 205.615 L2235.41 207.282 L2235.41 203.022 L2243.67 201.356 L2248.35 201.356 L2248.35 231.981 L2255.99 231.981 L2255.99 235.916 L2236.08 235.916 L2236.08 231.981 Z" fill="#000000" fill-rule="nonzero" fill-opacity="1" /></svg>
