<?xml version="1.0" encoding="utf-8"?>
<svg xmlns="http://www.w3.org/2000/svg" xmlns:xlink="http://www.w3.org/1999/xlink" width="600" height="400" viewBox="0 0 2400 1600">
<defs>
  <clipPath id="clip990">
    <rect x="0" y="0" width="2400" height="1600"/>
  </clipPath>
</defs>
<path clip-path="url(#clip990)" d="M0 1600 L2400 1600 L2400 0 L0 0  Z" fill="#ffffff" fill-rule="evenodd" fill-opacity="1"/>
<defs>
  <clipPath id="clip991">
    <rect x="205" y="123" width="2149" height="1301"/>
  </clipPath>
</defs>
<path clip-path="url(#clip990)" d="M205.121 1423.18 L2352.76 1423.18 L2352.76 123.472 L205.121 123.472  Z" fill="#ffffff" fill-rule="evenodd" fill-opacity="1"/>
<polyline clip-path="url(#clip991)" style="stroke:#000000; stroke-linecap:round; stroke-linejoin:round; stroke-width:2; stroke-opacity:0.1; fill:none" points="265.324,1423.18 265.324,123.472 "/>
<polyline clip-path="url(#clip991)" style="stroke:#000000; stroke-linecap:round; stroke-linejoin:round; stroke-width:2; stroke-opacity:0.1; fill:none" points="747.997,1423.18 747.997,123.472 "/>
<polyline clip-path="url(#clip991)" style="stroke:#000000; stroke-linecap:round; stroke-linejoin:round; stroke-width:2; stroke-opacity:0.1; fill:none" points="1230.67,1423.18 1230.67,123.472 "/>
<polyline clip-path="url(#clip991)" style="stroke:#000000; stroke-linecap:round; stroke-linejoin:round; stroke-width:2; stroke-opacity:0.1; fill:none" points="1713.34,1423.18 1713.34,123.472 "/>
<polyline clip-path="url(#clip991)" style="stroke:#000000; stroke-linecap:round; stroke-linejoin:round; stroke-width:2; stroke-opacity:0.1; fill:none" points="2196.02,1423.18 2196.02,123.472 "/>
<polyline clip-path="url(#clip991)" style="stroke:#000000; stroke-linecap:round; stroke-linejoin:round; stroke-width:2; stroke-opacity:0.1; fill:none" points="205.121,1423.18 2352.76,1423.18 "/>
<polyline clip-path="url(#clip991)" style="stroke:#000000; stroke-linecap:round; stroke-linejoin:round; stroke-width:2; stroke-opacity:0.1; fill:none" points="205.121,1161.25 2352.76,1161.25 "/>
<polyline clip-path="url(#clip991)" style="stroke:#000000; stroke-linecap:round; stroke-linejoin:round; stroke-width:2; stroke-opacity:0.1; fill:none" points="205.121,899.322 2352.76,899.322 "/>
<polyline clip-path="url(#clip991)" style="stroke:#000000; stroke-linecap:round; stroke-linejoin:round; stroke-width:2; stroke-opacity:0.1; fill:none" points="205.121,637.393 2352.76,637.393 "/>
<polyline clip-path="url(#clip991)" style="stroke:#000000; stroke-linecap:round; stroke-linejoin:round; stroke-width:2; stroke-opacity:0.1; fill:none" points="205.121,375.464 2352.76,375.464 "/>
<polyline clip-path="url(#clip990)" style="stroke:#000000; stroke-linecap:round; stroke-linejoin:round; stroke-width:4; stroke-opacity:1; fill:none" points="205.121,1423.18 2352.76,1423.18 "/>
<polyline clip-path="url(#clip990)" style="stroke:#000000; stroke-linecap:round; stroke-linejoin:round; stroke-width:4; stroke-opacity:1; fill:none" points="265.324,1423.18 265.324,1404.28 "/>
<polyline clip-path="url(#clip990)" style="stroke:#000000; stroke-linecap:round; stroke-linejoin:round; stroke-width:4; stroke-opacity:1; fill:none" points="747.997,1423.18 747.997,1404.28 "/>
<polyline clip-path="url(#clip990)" style="stroke:#000000; stroke-linecap:round; stroke-linejoin:round; stroke-width:4; stroke-opacity:1; fill:none" points="1230.67,1423.18 1230.67,1404.28 "/>
<polyline clip-path="url(#clip990)" style="stroke:#000000; stroke-linecap:round; stroke-linejoin:round; stroke-width:4; stroke-opacity:1; fill:none" points="1713.34,1423.18 1713.34,1404.28 "/>
<polyline clip-path="url(#clip990)" style="stroke:#000000; stroke-linecap:round; stroke-linejoin:round; stroke-width:4; stroke-opacity:1; fill:none" points="2196.02,1423.18 2196.02,1404.28 "/>
<path clip-path="url(#clip990)" d="M265.324 1454.1 Q261.713 1454.1 259.884 1457.66 Q258.079 1461.2 258.079 1468.33 Q258.079 1475.44 259.884 1479.01 Q261.713 1482.55 265.324 1482.55 Q268.958 1482.55 270.764 1479.01 Q272.592 1475.44 272.592 1468.33 Q272.592 1461.2 270.764 1457.66 Q268.958 1454.1 265.324 1454.1 M265.324 1450.39 Q271.134 1450.39 274.19 1455 Q277.268 1459.58 277.268 1468.33 Q277.268 1477.06 274.19 1481.67 Q271.134 1486.25 265.324 1486.25 Q259.514 1486.25 256.435 1481.67 Q253.38 1477.06 253.38 1468.33 Q253.38 1459.58 256.435 1455 Q259.514 1450.39 265.324 1450.39 Z" fill="#000000" fill-rule="nonzero" fill-opacity="1" /><path clip-path="url(#clip990)" d="M738.275 1451.02 L756.632 1451.02 L756.632 1454.96 L742.558 1454.96 L742.558 1463.43 Q743.576 1463.08 744.595 1462.92 Q745.613 1462.73 746.632 1462.73 Q752.419 1462.73 755.798 1465.9 Q759.178 1469.08 759.178 1474.49 Q759.178 1480.07 755.706 1483.17 Q752.234 1486.25 745.914 1486.25 Q743.738 1486.25 741.47 1485.88 Q739.224 1485.51 736.817 1484.77 L736.817 1480.07 Q738.9 1481.2 741.123 1481.76 Q743.345 1482.32 745.822 1482.32 Q749.826 1482.32 752.164 1480.21 Q754.502 1478.1 754.502 1474.49 Q754.502 1470.88 752.164 1468.77 Q749.826 1466.67 745.822 1466.67 Q743.947 1466.67 742.072 1467.08 Q740.22 1467.5 738.275 1468.38 L738.275 1451.02 Z" fill="#000000" fill-rule="nonzero" fill-opacity="1" /><path clip-path="url(#clip990)" d="M1205.36 1481.64 L1213 1481.64 L1213 1455.28 L1204.69 1456.95 L1204.69 1452.69 L1212.95 1451.02 L1217.63 1451.02 L1217.63 1481.64 L1225.27 1481.64 L1225.27 1485.58 L1205.36 1485.58 L1205.36 1481.64 Z" fill="#000000" fill-rule="nonzero" fill-opacity="1" /><path clip-path="url(#clip990)" d="M1244.71 1454.1 Q1241.1 1454.1 1239.27 1457.66 Q1237.47 1461.2 1237.47 1468.33 Q1237.47 1475.44 1239.27 1479.01 Q1241.1 1482.55 1244.71 1482.55 Q1248.34 1482.55 1250.15 1479.01 Q1251.98 1475.44 1251.98 1468.33 Q1251.98 1461.2 1250.15 1457.66 Q1248.34 1454.1 1244.71 1454.1 M1244.71 1450.39 Q1250.52 1450.39 1253.58 1455 Q1256.65 1459.58 1256.65 1468.33 Q1256.65 1477.06 1253.58 1481.67 Q1250.52 1486.25 1244.71 1486.25 Q1238.9 1486.25 1235.82 1481.67 Q1232.77 1477.06 1232.77 1468.33 Q1232.77 1459.58 1235.82 1455 Q1238.9 1450.39 1244.71 1450.39 Z" fill="#000000" fill-rule="nonzero" fill-opacity="1" /><path clip-path="url(#clip990)" d="M1688.53 1481.64 L1696.17 1481.64 L1696.17 1455.28 L1687.86 1456.95 L1687.86 1452.69 L1696.12 1451.02 L1700.8 1451.02 L1700.8 1481.64 L1708.44 1481.64 L1708.44 1485.58 L1688.53 1485.58 L1688.53 1481.64 Z" fill="#000000" fill-rule="nonzero" fill-opacity="1" /><path clip-path="url(#clip990)" d="M1717.93 1451.02 L1736.28 1451.02 L1736.28 1454.96 L1722.21 1454.96 L1722.21 1463.43 Q1723.23 1463.08 1724.25 1462.92 Q1725.27 1462.73 1726.28 1462.73 Q1732.07 1462.73 1735.45 1465.9 Q1738.83 1469.08 1738.83 1474.49 Q1738.83 1480.07 1735.36 1483.17 Q1731.89 1486.25 1725.57 1486.25 Q1723.39 1486.25 1721.12 1485.88 Q1718.88 1485.51 1716.47 1484.77 L1716.47 1480.07 Q1718.55 1481.2 1720.78 1481.76 Q1723 1482.32 1725.47 1482.32 Q1729.48 1482.32 1731.82 1480.21 Q1734.15 1478.1 1734.15 1474.49 Q1734.15 1470.88 1731.82 1468.77 Q1729.48 1466.67 1725.47 1466.67 Q1723.6 1466.67 1721.72 1467.08 Q1719.87 1467.5 1717.93 1468.38 L1717.93 1451.02 Z" fill="#000000" fill-rule="nonzero" fill-opacity="1" /><path clip-path="url(#clip990)" d="M2174.79 1481.64 L2191.11 1481.64 L2191.11 1485.58 L2169.17 1485.58 L2169.17 1481.64 Q2171.83 1478.89 2176.41 1474.26 Q2181.02 1469.61 2182.2 1468.27 Q2184.44 1465.74 2185.32 1464.01 Q2186.23 1462.25 2186.23 1460.56 Q2186.23 1457.8 2184.28 1456.07 Q2182.36 1454.33 2179.26 1454.33 Q2177.06 1454.33 2174.61 1455.09 Q2172.18 1455.86 2169.4 1457.41 L2169.4 1452.69 Q2172.22 1451.55 2174.68 1450.97 Q2177.13 1450.39 2179.17 1450.39 Q2184.54 1450.39 2187.73 1453.08 Q2190.93 1455.77 2190.93 1460.26 Q2190.93 1462.39 2190.12 1464.31 Q2189.33 1466.2 2187.22 1468.8 Q2186.64 1469.47 2183.54 1472.69 Q2180.44 1475.88 2174.79 1481.64 Z" fill="#000000" fill-rule="nonzero" fill-opacity="1" /><path clip-path="url(#clip990)" d="M2210.93 1454.1 Q2207.31 1454.1 2205.49 1457.66 Q2203.68 1461.2 2203.68 1468.33 Q2203.68 1475.44 2205.49 1479.01 Q2207.31 1482.55 2210.93 1482.55 Q2214.56 1482.55 2216.37 1479.01 Q2218.19 1475.44 2218.19 1468.33 Q2218.19 1461.2 2216.37 1457.66 Q2214.56 1454.1 2210.93 1454.1 M2210.93 1450.39 Q2216.74 1450.39 2219.79 1455 Q2222.87 1459.58 2222.87 1468.33 Q2222.87 1477.06 2219.79 1481.67 Q2216.74 1486.25 2210.93 1486.25 Q2205.12 1486.25 2202.04 1481.67 Q2198.98 1477.06 2198.98 1468.33 Q2198.98 1459.58 2202.04 1455 Q2205.12 1450.39 2210.93 1450.39 Z" fill="#000000" fill-rule="nonzero" fill-opacity="1" /><path clip-path="url(#clip990)" d="M1210.71 1520.52 L1217.14 1520.52 L1217.14 1568.04 L1210.71 1568.04 L1210.71 1520.52 Z" fill="#000000" fill-rule="nonzero" fill-opacity="1" /><path clip-path="url(#clip990)" d="M1235.48 1522.27 L1235.48 1532.4 L1247.54 1532.4 L1247.54 1536.95 L1235.48 1536.95 L1235.48 1556.3 Q1235.48 1560.66 1236.65 1561.9 Q1237.86 1563.14 1241.52 1563.14 L1247.54 1563.14 L1247.54 1568.04 L1241.52 1568.04 Q1234.74 1568.04 1232.17 1565.53 Q1229.59 1562.98 1229.59 1556.3 L1229.59 1536.95 L1225.29 1536.95 L1225.29 1532.4 L1229.59 1532.4 L1229.59 1522.27 L1235.48 1522.27 Z" fill="#000000" fill-rule="nonzero" fill-opacity="1" /><path clip-path="url(#clip990)" d="M1285.73 1548.76 L1285.73 1551.62 L1258.81 1551.62 Q1259.19 1557.67 1262.44 1560.85 Q1265.71 1564 1271.54 1564 Q1274.91 1564 1278.06 1563.17 Q1281.25 1562.35 1284.37 1560.69 L1284.37 1566.23 Q1281.21 1567.57 1277.9 1568.27 Q1274.59 1568.97 1271.19 1568.97 Q1262.66 1568.97 1257.66 1564 Q1252.7 1559.04 1252.7 1550.57 Q1252.7 1541.82 1257.41 1536.69 Q1262.15 1531.54 1270.17 1531.54 Q1277.36 1531.54 1281.53 1536.18 Q1285.73 1540.8 1285.73 1548.76 M1279.88 1547.04 Q1279.81 1542.23 1277.17 1539.37 Q1274.56 1536.5 1270.23 1536.5 Q1265.33 1536.5 1262.37 1539.27 Q1259.44 1542.04 1259 1547.07 L1279.88 1547.04 Z" fill="#000000" fill-rule="nonzero" fill-opacity="1" /><path clip-path="url(#clip990)" d="M1323.1 1539.24 Q1325.3 1535.29 1328.35 1533.41 Q1331.41 1531.54 1335.55 1531.54 Q1341.12 1531.54 1344.14 1535.45 Q1347.16 1539.33 1347.16 1546.53 L1347.16 1568.04 L1341.27 1568.04 L1341.27 1546.72 Q1341.27 1541.59 1339.46 1539.11 Q1337.65 1536.63 1333.92 1536.63 Q1329.37 1536.63 1326.73 1539.65 Q1324.09 1542.68 1324.09 1547.9 L1324.09 1568.04 L1318.2 1568.04 L1318.2 1546.72 Q1318.2 1541.56 1316.38 1539.11 Q1314.57 1536.63 1310.78 1536.63 Q1306.3 1536.63 1303.65 1539.68 Q1301.01 1542.71 1301.01 1547.9 L1301.01 1568.04 L1295.12 1568.04 L1295.12 1532.4 L1301.01 1532.4 L1301.01 1537.93 Q1303.02 1534.66 1305.82 1533.1 Q1308.62 1531.54 1312.47 1531.54 Q1316.35 1531.54 1319.06 1533.51 Q1321.8 1535.48 1323.1 1539.24 Z" fill="#000000" fill-rule="nonzero" fill-opacity="1" /><polyline clip-path="url(#clip990)" style="stroke:#000000; stroke-linecap:round; stroke-linejoin:round; stroke-width:4; stroke-opacity:1; fill:none" points="205.121,1423.18 205.121,123.472 "/>
<polyline clip-path="url(#clip990)" style="stroke:#000000; stroke-linecap:round; stroke-linejoin:round; stroke-width:4; stroke-opacity:1; fill:none" points="205.121,1423.18 224.019,1423.18 "/>
<polyline clip-path="url(#clip990)" style="stroke:#000000; stroke-linecap:round; stroke-linejoin:round; stroke-width:4; stroke-opacity:1; fill:none" points="205.121,1161.25 224.019,1161.25 "/>
<polyline clip-path="url(#clip990)" style="stroke:#000000; stroke-linecap:round; stroke-linejoin:round; stroke-width:4; stroke-opacity:1; fill:none" points="205.121,899.322 224.019,899.322 "/>
<polyline clip-path="url(#clip990)" style="stroke:#000000; stroke-linecap:round; stroke-linejoin:round; stroke-width:4; stroke-opacity:1; fill:none" points="205.121,637.393 224.019,637.393 "/>
<polyline clip-path="url(#clip990)" style="stroke:#000000; stroke-linecap:round; stroke-linejoin:round; stroke-width:4; stroke-opacity:1; fill:none" points="205.121,375.464 224.019,375.464 "/>
<path clip-path="url(#clip990)" d="M157.177 1408.98 Q153.566 1408.98 151.737 1412.54 Q149.931 1416.08 149.931 1423.21 Q149.931 1430.32 151.737 1433.89 Q153.566 1437.43 157.177 1437.43 Q160.811 1437.43 162.616 1433.89 Q164.445 1430.32 164.445 1423.21 Q164.445 1416.08 162.616 1412.54 Q160.811 1408.98 157.177 1408.98 M157.177 1405.27 Q162.987 1405.27 166.042 1409.88 Q169.121 1414.46 169.121 1423.21 Q169.121 1431.94 166.042 1436.55 Q162.987 1441.13 157.177 1441.13 Q151.366 1441.13 148.288 1436.55 Q145.232 1431.94 145.232 1423.21 Q145.232 1414.46 148.288 1409.88 Q151.366 1405.27 157.177 1405.27 Z" fill="#000000" fill-rule="nonzero" fill-opacity="1" /><path clip-path="url(#clip990)" d="M121.043 1174.6 L137.362 1174.6 L137.362 1178.53 L115.418 1178.53 L115.418 1174.6 Q118.08 1171.84 122.663 1167.21 Q127.269 1162.56 128.45 1161.22 Q130.695 1158.69 131.575 1156.96 Q132.478 1155.2 132.478 1153.51 Q132.478 1150.75 130.533 1149.02 Q128.612 1147.28 125.51 1147.28 Q123.311 1147.28 120.857 1148.05 Q118.427 1148.81 115.649 1150.36 L115.649 1145.64 Q118.473 1144.5 120.927 1143.92 Q123.38 1143.35 125.418 1143.35 Q130.788 1143.35 133.982 1146.03 Q137.177 1148.72 137.177 1153.21 Q137.177 1155.34 136.367 1157.26 Q135.579 1159.16 133.473 1161.75 Q132.894 1162.42 129.792 1165.64 Q126.691 1168.83 121.043 1174.6 Z" fill="#000000" fill-rule="nonzero" fill-opacity="1" /><path clip-path="url(#clip990)" d="M157.177 1147.05 Q153.566 1147.05 151.737 1150.61 Q149.931 1154.16 149.931 1161.29 Q149.931 1168.39 151.737 1171.96 Q153.566 1175.5 157.177 1175.5 Q160.811 1175.5 162.616 1171.96 Q164.445 1168.39 164.445 1161.29 Q164.445 1154.16 162.616 1150.61 Q160.811 1147.05 157.177 1147.05 M157.177 1143.35 Q162.987 1143.35 166.042 1147.95 Q169.121 1152.54 169.121 1161.29 Q169.121 1170.01 166.042 1174.62 Q162.987 1179.2 157.177 1179.2 Q151.366 1179.2 148.288 1174.62 Q145.232 1170.01 145.232 1161.29 Q145.232 1152.54 148.288 1147.95 Q151.366 1143.35 157.177 1143.35 Z" fill="#000000" fill-rule="nonzero" fill-opacity="1" /><path clip-path="url(#clip990)" d="M129.862 886.116 L118.056 904.565 L129.862 904.565 L129.862 886.116 M128.635 882.042 L134.515 882.042 L134.515 904.565 L139.445 904.565 L139.445 908.454 L134.515 908.454 L134.515 916.602 L129.862 916.602 L129.862 908.454 L114.26 908.454 L114.26 903.94 L128.635 882.042 Z" fill="#000000" fill-rule="nonzero" fill-opacity="1" /><path clip-path="url(#clip990)" d="M157.177 885.121 Q153.566 885.121 151.737 888.686 Q149.931 892.227 149.931 899.357 Q149.931 906.463 151.737 910.028 Q153.566 913.57 157.177 913.57 Q160.811 913.57 162.616 910.028 Q164.445 906.463 164.445 899.357 Q164.445 892.227 162.616 888.686 Q160.811 885.121 157.177 885.121 M157.177 881.417 Q162.987 881.417 166.042 886.024 Q169.121 890.607 169.121 899.357 Q169.121 908.084 166.042 912.69 Q162.987 917.273 157.177 917.273 Q151.366 917.273 148.288 912.69 Q145.232 908.084 145.232 899.357 Q145.232 890.607 148.288 886.024 Q151.366 881.417 157.177 881.417 Z" fill="#000000" fill-rule="nonzero" fill-opacity="1" /><path clip-path="url(#clip990)" d="M127.593 635.53 Q124.445 635.53 122.593 637.683 Q120.765 639.835 120.765 643.585 Q120.765 647.312 122.593 649.488 Q124.445 651.641 127.593 651.641 Q130.742 651.641 132.57 649.488 Q134.422 647.312 134.422 643.585 Q134.422 639.835 132.57 637.683 Q130.742 635.53 127.593 635.53 M136.876 620.877 L136.876 625.136 Q135.117 624.303 133.311 623.863 Q131.529 623.423 129.769 623.423 Q125.14 623.423 122.686 626.548 Q120.255 629.673 119.908 635.993 Q121.274 633.979 123.334 632.914 Q125.394 631.826 127.871 631.826 Q133.08 631.826 136.089 634.997 Q139.121 638.146 139.121 643.585 Q139.121 648.909 135.973 652.127 Q132.825 655.345 127.593 655.345 Q121.598 655.345 118.427 650.761 Q115.256 646.155 115.256 637.428 Q115.256 629.234 119.144 624.373 Q123.033 619.488 129.584 619.488 Q131.343 619.488 133.126 619.836 Q134.931 620.183 136.876 620.877 Z" fill="#000000" fill-rule="nonzero" fill-opacity="1" /><path clip-path="url(#clip990)" d="M157.177 623.192 Q153.566 623.192 151.737 626.757 Q149.931 630.298 149.931 637.428 Q149.931 644.534 151.737 648.099 Q153.566 651.641 157.177 651.641 Q160.811 651.641 162.616 648.099 Q164.445 644.534 164.445 637.428 Q164.445 630.298 162.616 626.757 Q160.811 623.192 157.177 623.192 M157.177 619.488 Q162.987 619.488 166.042 624.095 Q169.121 628.678 169.121 637.428 Q169.121 646.155 166.042 650.761 Q162.987 655.345 157.177 655.345 Q151.366 655.345 148.288 650.761 Q145.232 646.155 145.232 637.428 Q145.232 628.678 148.288 624.095 Q151.366 619.488 157.177 619.488 Z" fill="#000000" fill-rule="nonzero" fill-opacity="1" /><path clip-path="url(#clip990)" d="M127.015 376.333 Q123.681 376.333 121.76 378.115 Q119.862 379.897 119.862 383.022 Q119.862 386.147 121.76 387.93 Q123.681 389.712 127.015 389.712 Q130.348 389.712 132.269 387.93 Q134.191 386.124 134.191 383.022 Q134.191 379.897 132.269 378.115 Q130.371 376.333 127.015 376.333 M122.339 374.342 Q119.33 373.601 117.64 371.541 Q115.973 369.481 115.973 366.518 Q115.973 362.374 118.913 359.967 Q121.876 357.559 127.015 357.559 Q132.177 357.559 135.117 359.967 Q138.056 362.374 138.056 366.518 Q138.056 369.481 136.367 371.541 Q134.7 373.601 131.714 374.342 Q135.093 375.129 136.968 377.42 Q138.867 379.712 138.867 383.022 Q138.867 388.045 135.788 390.731 Q132.732 393.416 127.015 393.416 Q121.297 393.416 118.218 390.731 Q115.163 388.045 115.163 383.022 Q115.163 379.712 117.061 377.42 Q118.959 375.129 122.339 374.342 M120.626 366.958 Q120.626 369.643 122.293 371.147 Q123.982 372.652 127.015 372.652 Q130.024 372.652 131.714 371.147 Q133.427 369.643 133.427 366.958 Q133.427 364.272 131.714 362.768 Q130.024 361.263 127.015 361.263 Q123.982 361.263 122.293 362.768 Q120.626 364.272 120.626 366.958 Z" fill="#000000" fill-rule="nonzero" fill-opacity="1" /><path clip-path="url(#clip990)" d="M157.177 361.263 Q153.566 361.263 151.737 364.828 Q149.931 368.37 149.931 375.499 Q149.931 382.606 151.737 386.17 Q153.566 389.712 157.177 389.712 Q160.811 389.712 162.616 386.17 Q164.445 382.606 164.445 375.499 Q164.445 368.37 162.616 364.828 Q160.811 361.263 157.177 361.263 M157.177 357.559 Q162.987 357.559 166.042 362.166 Q169.121 366.749 169.121 375.499 Q169.121 384.226 166.042 388.832 Q162.987 393.416 157.177 393.416 Q151.366 393.416 148.288 388.832 Q145.232 384.226 145.232 375.499 Q145.232 366.749 148.288 362.166 Q151.366 357.559 157.177 357.559 Z" fill="#000000" fill-rule="nonzero" fill-opacity="1" /><path clip-path="url(#clip990)" d="M21.7677 841.471 L39.6235 841.471 L39.6235 833.386 Q39.6235 828.899 37.3 826.448 Q34.9765 823.997 30.6797 823.997 Q26.4147 823.997 24.0912 826.448 Q21.7677 828.899 21.7677 833.386 L21.7677 841.471 M16.4842 847.9 L16.4842 833.386 Q16.4842 825.397 20.1126 821.323 Q23.7092 817.218 30.6797 817.218 Q37.7138 817.218 41.3104 821.323 Q44.907 825.397 44.907 833.386 L44.907 841.471 L64.0042 841.471 L64.0042 847.9 L16.4842 847.9 Z" fill="#000000" fill-rule="nonzero" fill-opacity="1" /><path clip-path="url(#clip990)" d="M33.8307 789.336 Q33.2578 790.322 33.0032 791.5 Q32.7167 792.646 32.7167 794.046 Q32.7167 799.012 35.9632 801.685 Q39.1779 804.327 45.2253 804.327 L64.0042 804.327 L64.0042 810.215 L28.3562 810.215 L28.3562 804.327 L33.8944 804.327 Q30.6479 802.481 29.0883 799.521 Q27.4968 796.561 27.4968 792.328 Q27.4968 791.723 27.5923 790.991 Q27.656 790.259 27.8151 789.368 L33.8307 789.336 Z" fill="#000000" fill-rule="nonzero" fill-opacity="1" /><path clip-path="url(#clip990)" d="M28.3562 783.193 L28.3562 777.336 L64.0042 777.336 L64.0042 783.193 L28.3562 783.193 M14.479 783.193 L14.479 777.336 L21.895 777.336 L21.895 783.193 L14.479 783.193 Z" fill="#000000" fill-rule="nonzero" fill-opacity="1" /><path clip-path="url(#clip990)" d="M29.7248 739.429 L35.1993 739.429 Q33.8307 741.911 33.1623 744.426 Q32.4621 746.908 32.4621 749.455 Q32.4621 755.152 36.0905 758.303 Q39.6872 761.454 46.212 761.454 Q52.7369 761.454 56.3653 758.303 Q59.9619 755.152 59.9619 749.455 Q59.9619 746.908 59.2935 744.426 Q58.5933 741.911 57.2247 739.429 L62.6355 739.429 Q63.7814 741.879 64.3543 744.521 Q64.9272 747.131 64.9272 750.091 Q64.9272 758.144 59.8664 762.886 Q54.8057 767.629 46.212 767.629 Q37.491 767.629 32.4939 762.854 Q27.4968 758.048 27.4968 749.709 Q27.4968 747.004 28.0697 744.426 Q28.6108 741.848 29.7248 739.429 Z" fill="#000000" fill-rule="nonzero" fill-opacity="1" /><path clip-path="url(#clip990)" d="M44.7161 698.752 L47.5806 698.752 L47.5806 725.679 Q53.6281 725.297 56.8109 722.05 Q59.9619 718.772 59.9619 712.947 Q59.9619 709.573 59.1344 706.422 Q58.3069 703.24 56.6518 700.12 L62.1899 700.12 Q63.5267 703.271 64.227 706.582 Q64.9272 709.892 64.9272 713.297 Q64.9272 721.827 59.9619 726.824 Q54.9967 731.79 46.5303 731.79 Q37.7774 731.79 32.6531 727.079 Q27.4968 722.337 27.4968 714.316 Q27.4968 707.123 32.1438 702.953 Q36.7589 698.752 44.7161 698.752 M42.9973 704.608 Q38.1912 704.672 35.3266 707.314 Q32.4621 709.924 32.4621 714.252 Q32.4621 719.154 35.2312 722.114 Q38.0002 725.042 43.0292 725.488 L42.9973 704.608 Z" fill="#000000" fill-rule="nonzero" fill-opacity="1" /><path clip-path="url(#clip990)" d="M879.256 12.096 L887.439 12.096 L887.439 72.576 L879.256 72.576 L879.256 12.096 Z" fill="#000000" fill-rule="nonzero" fill-opacity="1" /><path clip-path="url(#clip990)" d="M910.772 14.324 L910.772 27.2059 L926.125 27.2059 L926.125 32.9987 L910.772 32.9987 L910.772 57.6282 Q910.772 63.1779 912.271 64.7578 Q913.81 66.3376 918.469 66.3376 L926.125 66.3376 L926.125 72.576 L918.469 72.576 Q909.84 72.576 906.559 69.3758 Q903.278 66.1351 903.278 57.6282 L903.278 32.9987 L897.809 32.9987 L897.809 27.2059 L903.278 27.2059 L903.278 14.324 L910.772 14.324 Z" fill="#000000" fill-rule="nonzero" fill-opacity="1" /><path clip-path="url(#clip990)" d="M974.736 48.0275 L974.736 51.6733 L940.465 51.6733 Q940.951 59.3701 945.083 63.421 Q949.256 67.4314 956.669 67.4314 Q960.963 67.4314 964.973 66.3781 Q969.024 65.3249 972.994 63.2184 L972.994 70.267 Q968.984 71.9684 964.771 72.8596 Q960.558 73.7508 956.223 73.7508 Q945.367 73.7508 939.007 67.4314 Q932.687 61.1119 932.687 50.3365 Q932.687 39.1965 938.683 32.6746 Q944.719 26.1121 954.927 26.1121 Q964.082 26.1121 969.389 32.0264 Q974.736 37.9003 974.736 48.0275 M967.282 45.84 Q967.201 39.7232 963.839 36.0774 Q960.517 32.4315 955.008 32.4315 Q948.769 32.4315 945.002 35.9558 Q941.275 39.4801 940.708 45.8805 L967.282 45.84 Z" fill="#000000" fill-rule="nonzero" fill-opacity="1" /><path clip-path="url(#clip990)" d="M1022.29 35.9153 Q1025.09 30.8922 1028.98 28.5022 Q1032.87 26.1121 1038.13 26.1121 Q1045.22 26.1121 1049.07 31.0947 Q1052.92 36.0368 1052.92 45.1919 L1052.92 72.576 L1045.42 72.576 L1045.42 45.4349 Q1045.42 38.913 1043.12 35.7533 Q1040.81 32.5936 1036.07 32.5936 Q1030.27 32.5936 1026.91 36.4419 Q1023.55 40.2903 1023.55 46.9338 L1023.55 72.576 L1016.06 72.576 L1016.06 45.4349 Q1016.06 38.8725 1013.75 35.7533 Q1011.44 32.5936 1006.62 32.5936 Q1000.9 32.5936 997.542 36.4824 Q994.18 40.3308 994.18 46.9338 L994.18 72.576 L986.686 72.576 L986.686 27.2059 L994.18 27.2059 L994.18 34.2544 Q996.732 30.082 1000.3 28.0971 Q1003.86 26.1121 1008.76 26.1121 Q1013.71 26.1121 1017.15 28.6237 Q1020.63 31.1352 1022.29 35.9153 Z" fill="#000000" fill-rule="nonzero" fill-opacity="1" /><path clip-path="url(#clip990)" d="M1101.37 65.7705 L1101.37 89.8329 L1093.87 89.8329 L1093.87 27.2059 L1101.37 27.2059 L1101.37 34.0924 Q1103.72 30.0415 1107.28 28.0971 Q1110.89 26.1121 1115.87 26.1121 Q1124.13 26.1121 1129.28 32.6746 Q1134.46 39.2371 1134.46 49.9314 Q1134.46 60.6258 1129.28 67.1883 Q1124.13 73.7508 1115.87 73.7508 Q1110.89 73.7508 1107.28 71.8063 Q1103.72 69.8214 1101.37 65.7705 M1126.73 49.9314 Q1126.73 41.7081 1123.32 37.0496 Q1119.96 32.3505 1114.05 32.3505 Q1108.13 32.3505 1104.73 37.0496 Q1101.37 41.7081 1101.37 49.9314 Q1101.37 58.1548 1104.73 62.8538 Q1108.13 67.5124 1114.05 67.5124 Q1119.96 67.5124 1123.32 62.8538 Q1126.73 58.1548 1126.73 49.9314 Z" fill="#000000" fill-rule="nonzero" fill-opacity="1" /><path clip-path="url(#clip990)" d="M1173.11 34.1734 Q1171.85 33.4443 1170.35 33.1202 Q1168.9 32.7556 1167.11 32.7556 Q1160.79 32.7556 1157.39 36.8875 Q1154.03 40.9789 1154.03 48.6757 L1154.03 72.576 L1146.53 72.576 L1146.53 27.2059 L1154.03 27.2059 L1154.03 34.2544 Q1156.38 30.1225 1160.15 28.1376 Q1163.91 26.1121 1169.3 26.1121 Q1170.07 26.1121 1171 26.2337 Q1171.93 26.3147 1173.07 26.5172 L1173.11 34.1734 Z" fill="#000000" fill-rule="nonzero" fill-opacity="1" /><path clip-path="url(#clip990)" d="M1180.93 27.2059 L1188.38 27.2059 L1188.38 72.576 L1180.93 72.576 L1180.93 27.2059 M1180.93 9.54393 L1188.38 9.54393 L1188.38 18.9825 L1180.93 18.9825 L1180.93 9.54393 Z" fill="#000000" fill-rule="nonzero" fill-opacity="1" /><path clip-path="url(#clip990)" d="M1236.63 28.9478 L1236.63 35.9153 Q1233.47 34.1734 1230.27 33.3227 Q1227.11 32.4315 1223.87 32.4315 Q1216.62 32.4315 1212.6 37.0496 Q1208.59 41.6271 1208.59 49.9314 Q1208.59 58.2358 1212.6 62.8538 Q1216.62 67.4314 1223.87 67.4314 Q1227.11 67.4314 1230.27 66.5807 Q1233.47 65.6895 1236.63 63.9476 L1236.63 70.8341 Q1233.51 72.2924 1230.15 73.0216 Q1226.82 73.7508 1223.06 73.7508 Q1212.81 73.7508 1206.77 67.3098 Q1200.74 60.8689 1200.74 49.9314 Q1200.74 38.832 1206.81 32.472 Q1212.93 26.1121 1223.54 26.1121 Q1226.99 26.1121 1230.27 26.8413 Q1233.55 27.5299 1236.63 28.9478 Z" fill="#000000" fill-rule="nonzero" fill-opacity="1" /><path clip-path="url(#clip990)" d="M1288.4 48.0275 L1288.4 51.6733 L1254.13 51.6733 Q1254.61 59.3701 1258.74 63.421 Q1262.92 67.4314 1270.33 67.4314 Q1274.62 67.4314 1278.63 66.3781 Q1282.69 65.3249 1286.66 63.2184 L1286.66 70.267 Q1282.65 71.9684 1278.43 72.8596 Q1274.22 73.7508 1269.88 73.7508 Q1259.03 73.7508 1252.67 67.4314 Q1246.35 61.1119 1246.35 50.3365 Q1246.35 39.1965 1252.34 32.6746 Q1258.38 26.1121 1268.59 26.1121 Q1277.74 26.1121 1283.05 32.0264 Q1288.4 37.9003 1288.4 48.0275 M1280.94 45.84 Q1280.86 39.7232 1277.5 36.0774 Q1274.18 32.4315 1268.67 32.4315 Q1262.43 32.4315 1258.66 35.9558 Q1254.94 39.4801 1254.37 45.8805 L1280.94 45.84 Z" fill="#000000" fill-rule="nonzero" fill-opacity="1" /><path clip-path="url(#clip990)" d="M1329.55 28.5427 L1329.55 35.5912 Q1326.39 33.9709 1322.99 33.1607 Q1319.59 32.3505 1315.94 32.3505 Q1310.39 32.3505 1307.6 34.0519 Q1304.84 35.7533 1304.84 39.156 Q1304.84 41.7486 1306.83 43.2475 Q1308.81 44.7058 1314.81 46.0426 L1317.36 46.6097 Q1325.3 48.3111 1328.62 51.4303 Q1331.99 54.509 1331.99 60.0587 Q1331.99 66.3781 1326.96 70.0644 Q1321.98 73.7508 1313.23 73.7508 Q1309.58 73.7508 1305.61 73.0216 Q1301.68 72.3329 1297.31 70.9151 L1297.31 63.2184 Q1301.44 65.3654 1305.45 66.4591 Q1309.46 67.5124 1313.39 67.5124 Q1318.66 67.5124 1321.49 65.73 Q1324.33 63.9071 1324.33 60.6258 Q1324.33 57.5877 1322.26 55.9673 Q1320.24 54.3469 1313.31 52.8481 L1310.72 52.2405 Q1303.79 50.7821 1300.71 47.7845 Q1297.63 44.7463 1297.63 39.4801 Q1297.63 33.0797 1302.17 29.5959 Q1306.71 26.1121 1315.05 26.1121 Q1319.18 26.1121 1322.83 26.7198 Q1326.48 27.3274 1329.55 28.5427 Z" fill="#000000" fill-rule="nonzero" fill-opacity="1" /><path clip-path="url(#clip990)" d="M1388.13 9.62495 Q1382.7 18.942 1380.07 28.0566 Q1377.44 37.1711 1377.44 46.5287 Q1377.44 55.8863 1380.07 65.0818 Q1382.74 74.2369 1388.13 83.5134 L1381.65 83.5134 Q1375.57 73.9938 1372.53 64.7983 Q1369.54 55.6027 1369.54 46.5287 Q1369.54 37.4952 1372.53 28.3401 Q1375.53 19.1851 1381.65 9.62495 L1388.13 9.62495 Z" fill="#000000" fill-rule="nonzero" fill-opacity="1" /><path clip-path="url(#clip990)" d="M1431.52 28.5427 L1431.52 35.5912 Q1428.36 33.9709 1424.95 33.1607 Q1421.55 32.3505 1417.9 32.3505 Q1412.35 32.3505 1409.56 34.0519 Q1406.81 35.7533 1406.81 39.156 Q1406.81 41.7486 1408.79 43.2475 Q1410.78 44.7058 1416.77 46.0426 L1419.32 46.6097 Q1427.26 48.3111 1430.58 51.4303 Q1433.95 54.509 1433.95 60.0587 Q1433.95 66.3781 1428.92 70.0644 Q1423.94 73.7508 1415.19 73.7508 Q1411.54 73.7508 1407.57 73.0216 Q1403.65 72.3329 1399.27 70.9151 L1399.27 63.2184 Q1403.4 65.3654 1407.41 66.4591 Q1411.42 67.5124 1415.35 67.5124 Q1420.62 67.5124 1423.45 65.73 Q1426.29 63.9071 1426.29 60.6258 Q1426.29 57.5877 1424.22 55.9673 Q1422.2 54.3469 1415.27 52.8481 L1412.68 52.2405 Q1405.75 50.7821 1402.67 47.7845 Q1399.59 44.7463 1399.59 39.4801 Q1399.59 33.0797 1404.13 29.5959 Q1408.67 26.1121 1417.01 26.1121 Q1421.15 26.1121 1424.79 26.7198 Q1428.44 27.3274 1431.52 28.5427 Z" fill="#000000" fill-rule="nonzero" fill-opacity="1" /><path clip-path="url(#clip990)" d="M1453.19 14.324 L1453.19 27.2059 L1468.54 27.2059 L1468.54 32.9987 L1453.19 32.9987 L1453.19 57.6282 Q1453.19 63.1779 1454.69 64.7578 Q1456.23 66.3376 1460.88 66.3376 L1468.54 66.3376 L1468.54 72.576 L1460.88 72.576 Q1452.26 72.576 1448.98 69.3758 Q1445.69 66.1351 1445.69 57.6282 L1445.69 32.9987 L1440.23 32.9987 L1440.23 27.2059 L1445.69 27.2059 L1445.69 14.324 L1453.19 14.324 Z" fill="#000000" fill-rule="nonzero" fill-opacity="1" /><path clip-path="url(#clip990)" d="M1517.15 48.0275 L1517.15 51.6733 L1482.88 51.6733 Q1483.37 59.3701 1487.5 63.421 Q1491.67 67.4314 1499.08 67.4314 Q1503.38 67.4314 1507.39 66.3781 Q1511.44 65.3249 1515.41 63.2184 L1515.41 70.267 Q1511.4 71.9684 1507.19 72.8596 Q1502.97 73.7508 1498.64 73.7508 Q1487.78 73.7508 1481.42 67.4314 Q1475.1 61.1119 1475.1 50.3365 Q1475.1 39.1965 1481.1 32.6746 Q1487.13 26.1121 1497.34 26.1121 Q1506.5 26.1121 1511.8 32.0264 Q1517.15 37.9003 1517.15 48.0275 M1509.7 45.84 Q1509.62 39.7232 1506.25 36.0774 Q1502.93 32.4315 1497.42 32.4315 Q1491.19 32.4315 1487.42 35.9558 Q1483.69 39.4801 1483.12 45.8805 L1509.7 45.84 Z" fill="#000000" fill-rule="nonzero" fill-opacity="1" /><path clip-path="url(#clip990)" d="M1536.6 65.7705 L1536.6 89.8329 L1529.1 89.8329 L1529.1 27.2059 L1536.6 27.2059 L1536.6 34.0924 Q1538.95 30.0415 1542.51 28.0971 Q1546.12 26.1121 1551.1 26.1121 Q1559.36 26.1121 1564.51 32.6746 Q1569.69 39.2371 1569.69 49.9314 Q1569.69 60.6258 1564.51 67.1883 Q1559.36 73.7508 1551.1 73.7508 Q1546.12 73.7508 1542.51 71.8063 Q1538.95 69.8214 1536.6 65.7705 M1561.95 49.9314 Q1561.95 41.7081 1558.55 37.0496 Q1555.19 32.3505 1549.28 32.3505 Q1543.36 32.3505 1539.96 37.0496 Q1536.6 41.7081 1536.6 49.9314 Q1536.6 58.1548 1539.96 62.8538 Q1543.36 67.5124 1549.28 67.5124 Q1555.19 67.5124 1558.55 62.8538 Q1561.95 58.1548 1561.95 49.9314 Z" fill="#000000" fill-rule="nonzero" fill-opacity="1" /><path clip-path="url(#clip990)" d="M1610.89 65.6895 L1624.26 65.6895 L1624.26 19.5497 L1609.72 22.4663 L1609.72 15.0127 L1624.18 12.096 L1632.36 12.096 L1632.36 65.6895 L1645.73 65.6895 L1645.73 72.576 L1610.89 72.576 L1610.89 65.6895 Z" fill="#000000" fill-rule="nonzero" fill-opacity="1" /><path clip-path="url(#clip990)" d="M1660.03 9.62495 L1666.51 9.62495 Q1672.59 19.1851 1675.58 28.3401 Q1678.62 37.4952 1678.62 46.5287 Q1678.62 55.6027 1675.58 64.7983 Q1672.59 73.9938 1666.51 83.5134 L1660.03 83.5134 Q1665.41 74.2369 1668.05 65.0818 Q1670.72 55.8863 1670.72 46.5287 Q1670.72 37.1711 1668.05 28.0566 Q1665.41 18.942 1660.03 9.62495 Z" fill="#000000" fill-rule="nonzero" fill-opacity="1" /><path clip-path="url(#clip991)" d="M323.245 579.949 L323.245 1423.18 L400.472 1423.18 L400.472 579.949 L323.245 579.949 L323.245 579.949  Z" fill="#4682b4" fill-rule="evenodd" fill-opacity="1"/>
<polyline clip-path="url(#clip991)" style="stroke:#000000; stroke-linecap:round; stroke-linejoin:round; stroke-width:4; stroke-opacity:1; fill:none" points="323.245,579.949 323.245,1423.18 400.472,1423.18 400.472,579.949 323.245,579.949 "/>
<path clip-path="url(#clip991)" d="M419.779 455.043 L419.779 1423.18 L497.007 1423.18 L497.007 455.043 L419.779 455.043 L419.779 455.043  Z" fill="#4682b4" fill-rule="evenodd" fill-opacity="1"/>
<polyline clip-path="url(#clip991)" style="stroke:#000000; stroke-linecap:round; stroke-linejoin:round; stroke-width:4; stroke-opacity:1; fill:none" points="419.779,455.043 419.779,1423.18 497.007,1423.18 497.007,455.043 419.779,455.043 "/>
<path clip-path="url(#clip991)" d="M516.314 1109.72 L516.314 1423.18 L593.542 1423.18 L593.542 1109.72 L516.314 1109.72 L516.314 1109.72  Z" fill="#4682b4" fill-rule="evenodd" fill-opacity="1"/>
<polyline clip-path="url(#clip991)" style="stroke:#000000; stroke-linecap:round; stroke-linejoin:round; stroke-width:4; stroke-opacity:1; fill:none" points="516.314,1109.72 516.314,1423.18 593.542,1423.18 593.542,1109.72 516.314,1109.72 "/>
<path clip-path="url(#clip991)" d="M612.849 349.128 L612.849 1423.18 L690.077 1423.18 L690.077 349.128 L612.849 349.128 L612.849 349.128  Z" fill="#4682b4" fill-rule="evenodd" fill-opacity="1"/>
<polyline clip-path="url(#clip991)" style="stroke:#000000; stroke-linecap:round; stroke-linejoin:round; stroke-width:4; stroke-opacity:1; fill:none" points="612.849,349.128 612.849,1423.18 690.077,1423.18 690.077,349.128 612.849,349.128 "/>
<path clip-path="url(#clip991)" d="M709.384 571.327 L709.384 1423.18 L786.611 1423.18 L786.611 571.327 L709.384 571.327 L709.384 571.327  Z" fill="#4682b4" fill-rule="evenodd" fill-opacity="1"/>
<polyline clip-path="url(#clip991)" style="stroke:#000000; stroke-linecap:round; stroke-linejoin:round; stroke-width:4; stroke-opacity:1; fill:none" points="709.384,571.327 709.384,1423.18 786.611,1423.18 786.611,571.327 709.384,571.327 "/>
<path clip-path="url(#clip991)" d="M805.918 720.221 L805.918 1423.18 L883.146 1423.18 L883.146 720.221 L805.918 720.221 L805.918 720.221  Z" fill="#4682b4" fill-rule="evenodd" fill-opacity="1"/>
<polyline clip-path="url(#clip991)" style="stroke:#000000; stroke-linecap:round; stroke-linejoin:round; stroke-width:4; stroke-opacity:1; fill:none" points="805.918,720.221 805.918,1423.18 883.146,1423.18 883.146,720.221 805.918,720.221 "/>
<path clip-path="url(#clip991)" d="M902.453 256.92 L902.453 1423.18 L979.681 1423.18 L979.681 256.92 L902.453 256.92 L902.453 256.92  Z" fill="#4682b4" fill-rule="evenodd" fill-opacity="1"/>
<polyline clip-path="url(#clip991)" style="stroke:#000000; stroke-linecap:round; stroke-linejoin:round; stroke-width:4; stroke-opacity:1; fill:none" points="902.453,256.92 902.453,1423.18 979.681,1423.18 979.681,256.92 902.453,256.92 "/>
<path clip-path="url(#clip991)" d="M998.988 930.886 L998.988 1423.18 L1076.22 1423.18 L1076.22 930.886 L998.988 930.886 L998.988 930.886  Z" fill="#4682b4" fill-rule="evenodd" fill-opacity="1"/>
<polyline clip-path="url(#clip991)" style="stroke:#000000; stroke-linecap:round; stroke-linejoin:round; stroke-width:4; stroke-opacity:1; fill:none" points="998.988,930.886 998.988,1423.18 1076.22,1423.18 1076.22,930.886 998.988,930.886 "/>
<path clip-path="url(#clip991)" d="M1095.52 1286.8 L1095.52 1423.18 L1172.75 1423.18 L1172.75 1286.8 L1095.52 1286.8 L1095.52 1286.8  Z" fill="#4682b4" fill-rule="evenodd" fill-opacity="1"/>
<polyline clip-path="url(#clip991)" style="stroke:#000000; stroke-linecap:round; stroke-linejoin:round; stroke-width:4; stroke-opacity:1; fill:none" points="1095.52,1286.8 1095.52,1423.18 1172.75,1423.18 1172.75,1286.8 1095.52,1286.8 "/>
<path clip-path="url(#clip991)" d="M1192.06 137.744 L1192.06 1423.18 L1269.28 1423.18 L1269.28 137.744 L1192.06 137.744 L1192.06 137.744  Z" fill="#4682b4" fill-rule="evenodd" fill-opacity="1"/>
<polyline clip-path="url(#clip991)" style="stroke:#000000; stroke-linecap:round; stroke-linejoin:round; stroke-width:4; stroke-opacity:1; fill:none" points="1192.06,137.744 1192.06,1423.18 1269.28,1423.18 1269.28,137.744 1192.06,137.744 "/>
<path clip-path="url(#clip991)" d="M1288.59 774.931 L1288.59 1423.18 L1365.82 1423.18 L1365.82 774.931 L1288.59 774.931 L1288.59 774.931  Z" fill="#4682b4" fill-rule="evenodd" fill-opacity="1"/>
<polyline clip-path="url(#clip991)" style="stroke:#000000; stroke-linecap:round; stroke-linejoin:round; stroke-width:4; stroke-opacity:1; fill:none" points="1288.59,774.931 1288.59,1423.18 1365.82,1423.18 1365.82,774.931 1288.59,774.931 "/>
<path clip-path="url(#clip991)" d="M1385.13 206.818 L1385.13 1423.18 L1462.35 1423.18 L1462.35 206.818 L1385.13 206.818 L1385.13 206.818  Z" fill="#4682b4" fill-rule="evenodd" fill-opacity="1"/>
<polyline clip-path="url(#clip991)" style="stroke:#000000; stroke-linecap:round; stroke-linejoin:round; stroke-width:4; stroke-opacity:1; fill:none" points="1385.13,206.818 1385.13,1423.18 1462.35,1423.18 1462.35,206.818 1385.13,206.818 "/>
<path clip-path="url(#clip991)" d="M1481.66 1244.36 L1481.66 1423.18 L1558.89 1423.18 L1558.89 1244.36 L1481.66 1244.36 L1481.66 1244.36  Z" fill="#4682b4" fill-rule="evenodd" fill-opacity="1"/>
<polyline clip-path="url(#clip991)" style="stroke:#000000; stroke-linecap:round; stroke-linejoin:round; stroke-width:4; stroke-opacity:1; fill:none" points="1481.66,1244.36 1481.66,1423.18 1558.89,1423.18 1558.89,1244.36 1481.66,1244.36 "/>
<path clip-path="url(#clip991)" d="M1578.2 123.472 L1578.2 1423.18 L1655.42 1423.18 L1655.42 123.472 L1578.2 123.472 L1578.2 123.472  Z" fill="#4682b4" fill-rule="evenodd" fill-opacity="1"/>
<polyline clip-path="url(#clip991)" style="stroke:#000000; stroke-linecap:round; stroke-linejoin:round; stroke-width:4; stroke-opacity:1; fill:none" points="1578.2,123.472 1578.2,1423.18 1655.42,1423.18 1655.42,123.472 1578.2,123.472 "/>
<path clip-path="url(#clip991)" d="M1674.73 1229.97 L1674.73 1423.18 L1751.96 1423.18 L1751.96 1229.97 L1674.73 1229.97 L1674.73 1229.97  Z" fill="#4682b4" fill-rule="evenodd" fill-opacity="1"/>
<polyline clip-path="url(#clip991)" style="stroke:#000000; stroke-linecap:round; stroke-linejoin:round; stroke-width:4; stroke-opacity:1; fill:none" points="1674.73,1229.97 1674.73,1423.18 1751.96,1423.18 1751.96,1229.97 1674.73,1229.97 "/>
<path clip-path="url(#clip991)" d="M1771.27 225.514 L1771.27 1423.18 L1848.49 1423.18 L1848.49 225.514 L1771.27 225.514 L1771.27 225.514  Z" fill="#4682b4" fill-rule="evenodd" fill-opacity="1"/>
<polyline clip-path="url(#clip991)" style="stroke:#000000; stroke-linecap:round; stroke-linejoin:round; stroke-width:4; stroke-opacity:1; fill:none" points="1771.27,225.514 1771.27,1423.18 1848.49,1423.18 1848.49,225.514 1771.27,225.514 "/>
<path clip-path="url(#clip991)" d="M1867.8 651.897 L1867.8 1423.18 L1945.03 1423.18 L1945.03 651.897 L1867.8 651.897 L1867.8 651.897  Z" fill="#4682b4" fill-rule="evenodd" fill-opacity="1"/>
<polyline clip-path="url(#clip991)" style="stroke:#000000; stroke-linecap:round; stroke-linejoin:round; stroke-width:4; stroke-opacity:1; fill:none" points="1867.8,651.897 1867.8,1423.18 1945.03,1423.18 1945.03,651.897 1867.8,651.897 "/>
<path clip-path="url(#clip991)" d="M1964.33 643.602 L1964.33 1423.18 L2041.56 1423.18 L2041.56 643.602 L1964.33 643.602 L1964.33 643.602  Z" fill="#4682b4" fill-rule="evenodd" fill-opacity="1"/>
<polyline clip-path="url(#clip991)" style="stroke:#000000; stroke-linecap:round; stroke-linejoin:round; stroke-width:4; stroke-opacity:1; fill:none" points="1964.33,643.602 1964.33,1423.18 2041.56,1423.18 2041.56,643.602 1964.33,643.602 "/>
<path clip-path="url(#clip991)" d="M2060.87 1085.26 L2060.87 1423.18 L2138.1 1423.18 L2138.1 1085.26 L2060.87 1085.26 L2060.87 1085.26  Z" fill="#4682b4" fill-rule="evenodd" fill-opacity="1"/>
<polyline clip-path="url(#clip991)" style="stroke:#000000; stroke-linecap:round; stroke-linejoin:round; stroke-width:4; stroke-opacity:1; fill:none" points="2060.87,1085.26 2060.87,1423.18 2138.1,1423.18 2138.1,1085.26 2060.87,1085.26 "/>
<path clip-path="url(#clip991)" d="M2157.4 744.252 L2157.4 1423.18 L2234.63 1423.18 L2234.63 744.252 L2157.4 744.252 L2157.4 744.252  Z" fill="#4682b4" fill-rule="evenodd" fill-opacity="1"/>
<polyline clip-path="url(#clip991)" style="stroke:#000000; stroke-linecap:round; stroke-linejoin:round; stroke-width:4; stroke-opacity:1; fill:none" points="2157.4,744.252 2157.4,1423.18 2234.63,1423.18 2234.63,744.252 2157.4,744.252 "/>
<circle clip-path="url(#clip991)" style="fill:#4682b4; stroke:none; fill-opacity:0" cx="361.859" cy="579.949" r="2"/>
<circle clip-path="url(#clip991)" style="fill:#4682b4; stroke:none; fill-opacity:0" cx="458.393" cy="455.043" r="2"/>
<circle clip-path="url(#clip991)" style="fill:#4682b4; stroke:none; fill-opacity:0" cx="554.928" cy="1109.72" r="2"/>
<circle clip-path="url(#clip991)" style="fill:#4682b4; stroke:none; fill-opacity:0" cx="651.463" cy="349.128" r="2"/>
<circle clip-path="url(#clip991)" style="fill:#4682b4; stroke:none; fill-opacity:0" cx="747.997" cy="571.327" r="2"/>
<circle clip-path="url(#clip991)" style="fill:#4682b4; stroke:none; fill-opacity:0" cx="844.532" cy="720.221" r="2"/>
<circle clip-path="url(#clip991)" style="fill:#4682b4; stroke:none; fill-opacity:0" cx="941.067" cy="256.92" r="2"/>
<circle clip-path="url(#clip991)" style="fill:#4682b4; stroke:none; fill-opacity:0" cx="1037.6" cy="930.886" r="2"/>
<circle clip-path="url(#clip991)" style="fill:#4682b4; stroke:none; fill-opacity:0" cx="1134.14" cy="1286.8" r="2"/>
<circle clip-path="url(#clip991)" style="fill:#4682b4; stroke:none; fill-opacity:0" cx="1230.67" cy="137.744" r="2"/>
<circle clip-path="url(#clip991)" style="fill:#4682b4; stroke:none; fill-opacity:0" cx="1327.21" cy="774.931" r="2"/>
<circle clip-path="url(#clip991)" style="fill:#4682b4; stroke:none; fill-opacity:0" cx="1423.74" cy="206.818" r="2"/>
<circle clip-path="url(#clip991)" style="fill:#4682b4; stroke:none; fill-opacity:0" cx="1520.28" cy="1244.36" r="2"/>
<circle clip-path="url(#clip991)" style="fill:#4682b4; stroke:none; fill-opacity:0" cx="1616.81" cy="123.472" r="2"/>
<circle clip-path="url(#clip991)" style="fill:#4682b4; stroke:none; fill-opacity:0" cx="1713.34" cy="1229.97" r="2"/>
<circle clip-path="url(#clip991)" style="fill:#4682b4; stroke:none; fill-opacity:0" cx="1809.88" cy="225.514" r="2"/>
<circle clip-path="url(#clip991)" style="fill:#4682b4; stroke:none; fill-opacity:0" cx="1906.41" cy="651.897" r="2"/>
<circle clip-path="url(#clip991)" style="fill:#4682b4; stroke:none; fill-opacity:0" cx="2002.95" cy="643.602" r="2"/>
<circle clip-path="url(#clip991)" style="fill:#4682b4; stroke:none; fill-opacity:0" cx="2099.48" cy="1085.26" r="2"/>
<circle clip-path="url(#clip991)" style="fill:#4682b4; stroke:none; fill-opacity:0" cx="2196.02" cy="744.252" r="2"/>
</svg>
